# Blender v3.0.1 OBJ File: ''
# www.blender.org
mtllib toothR.mtl
o cube1_Buildup.025
v 0.869438 0.010076 -0.003037
v -0.870045 0.009469 -0.003035
v -0.738976 -2.112163 0.003037
v 0.739584 -2.111647 0.003035
vn 0.0000 0.0029 1.0000
usemtl Buildup.026
s 1
f 1//1 2//1 3//1 4//1
o cube1_Cementum.025
v -0.578956 -11.082415 0.442277
v -0.268193 -11.434313 0.004550
v -0.147115 -11.082415 0.565739
v -0.363036 -11.082415 0.504008
v -0.384492 -9.786375 0.760984
v -0.715084 -9.786375 0.674748
v 0.284725 -11.082415 0.442277
v 0.406526 -11.082415 0.004550
v 0.345626 -11.082415 0.223414
v 0.607286 -9.786375 0.674748
v 0.276693 -9.786375 0.760984
v 0.068805 -11.082415 0.504008
v -0.578956 -11.082415 -0.433177
v -0.639857 -11.082415 -0.214313
v -0.789235 -9.786375 -0.330548
v -0.715084 -9.786375 -0.665647
v 0.284725 -11.082415 -0.433177
v 0.607286 -9.786375 -0.665647
v 0.681437 -9.786375 -0.330548
v 0.345626 -11.082415 -0.214313
v -1.372323 0.215767 1.413383
v -1.267962 -2.662799 1.288022
v -0.663956 -2.815356 1.588854
v -0.739857 0.001153 1.852039
v -0.053899 -9.786375 0.847220
v -0.700757 -11.082415 0.004550
v -0.639857 -11.082415 0.223414
v -0.789235 -9.786375 0.339649
v -0.863386 -9.786375 0.004550
v 1.377530 0.215767 1.413383
v 0.745064 0.001153 1.852039
v 0.669163 -2.815356 1.588854
v 1.273170 -2.662799 1.288022
v 0.755588 -9.786375 0.004550
v 0.681437 -9.786375 0.339649
v -1.372323 0.215767 -1.404282
v -1.267962 -2.662799 -1.278920
v -1.533602 -2.453825 -0.668340
v -1.755095 0.509748 -0.757628
v -0.147115 -11.082415 -0.556638
v -0.363036 -11.082415 -0.494908
v -0.384492 -9.786375 -0.751883
v -0.053899 -9.786375 -0.838119
v 0.276693 -9.786375 -0.751883
v 0.068805 -11.082415 -0.494908
v 1.377530 0.215767 -1.404282
v 1.760302 0.509748 -0.757628
v 1.538809 -2.453825 -0.668340
v 1.273170 -2.662799 -1.278920
v 0.002604 -0.015259 2.016993
v 0.002604 -2.827022 1.742060
v 1.876658 0.653147 0.004551
v 1.760302 0.509748 0.766729
v 1.538809 -2.453825 0.677441
v 1.652939 -2.351892 0.004551
v 0.002604 -0.015259 -2.007892
v 0.002604 -2.827022 -1.732959
v -0.663956 -2.815356 -1.579753
v -0.739857 0.001153 -1.842938
v -1.871451 0.653147 0.004551
v -1.647732 -2.351892 0.004551
v -1.533602 -2.453825 0.677441
v -1.755095 0.509748 0.766729
v -0.943138 -6.551119 1.084142
v -0.470267 -6.551119 1.216588
v -0.943138 -6.551119 -1.075041
v -1.035959 -6.551119 -0.535245
v 0.948346 -6.551119 1.084142
v 0.475475 -6.551119 1.216588
v 0.948346 -6.551119 -1.075041
v 1.041166 -6.551119 -0.535245
v 0.002604 -6.551119 -1.339933
v -0.470267 -6.551119 -1.207487
v -1.128779 -6.551119 0.004551
v -1.035959 -6.551119 0.544346
v 0.002604 -6.551119 1.349034
v 1.133986 -6.551119 0.004551
v 1.041166 -6.551119 0.544346
v 0.745064 0.001153 -1.842938
v 0.669163 -2.815356 -1.579753
v 0.475475 -6.551119 -1.207487
vn -0.5945 -0.5706 0.5665
vn -0.0530 -0.9986 -0.0000
vn -0.0041 -0.5790 0.8153
vn -0.2388 -0.4296 0.8709
vn -0.2583 -0.1668 0.9516
vn -0.7167 -0.1639 0.6778
vn 0.5306 -0.6597 0.5323
vn 0.7755 -0.6314 0.0000
vn 0.8374 -0.5047 0.2098
vn 0.7059 -0.2243 0.6719
vn 0.2573 -0.1890 0.9477
vn 0.2336 -0.4674 0.8526
vn -0.5945 -0.5706 -0.5665
vn -0.9030 -0.3644 -0.2277
vn -0.9714 -0.1094 -0.2109
vn -0.7167 -0.1639 -0.6778
vn 0.5306 -0.6597 -0.5322
vn 0.7059 -0.2243 -0.6719
vn 0.9590 -0.1924 -0.2079
vn 0.8374 -0.5047 -0.2098
vn -0.7414 -0.0731 0.6670
vn -0.7412 -0.0928 0.6649
vn -0.3469 -0.0936 0.9332
vn -0.3798 -0.0863 0.9210
vn -0.0006 -0.1834 0.9830
vn -0.8719 -0.4898 0.0000
vn -0.9030 -0.3644 0.2277
vn -0.9714 -0.1094 0.2109
vn -0.9942 -0.1071 0.0000
vn 0.7414 -0.0731 0.6670
vn 0.3798 -0.0863 0.9210
vn 0.3469 -0.0936 0.9332
vn 0.7412 -0.0928 0.6649
vn 0.9813 -0.1925 -0.0000
vn 0.9590 -0.1924 0.2079
vn -0.7414 -0.0731 -0.6670
vn -0.7412 -0.0928 -0.6649
vn -0.9620 -0.0943 -0.2561
vn -0.9530 -0.0718 -0.2944
vn -0.0041 -0.5790 -0.8153
vn -0.2388 -0.4296 -0.8709
vn -0.2583 -0.1668 -0.9516
vn -0.0006 -0.1834 -0.9830
vn 0.2573 -0.1890 -0.9477
vn 0.2336 -0.4674 -0.8526
vn 0.7414 -0.0731 -0.6670
vn 0.9530 -0.0718 -0.2944
vn 0.9620 -0.0943 -0.2561
vn 0.7412 -0.0928 -0.6649
vn 0.0000 -0.0982 0.9952
vn 0.0000 -0.1033 0.9946
vn 0.9971 -0.0766 0.0000
vn 0.9530 -0.0718 0.2944
vn 0.9621 -0.0943 0.2560
vn 0.9950 -0.1003 0.0000
vn 0.0000 -0.0982 -0.9952
vn 0.0000 -0.1033 -0.9946
vn -0.3469 -0.0936 -0.9332
vn -0.3798 -0.0863 -0.9210
vn -0.9971 -0.0766 -0.0000
vn -0.9949 -0.1004 0.0000
vn -0.9620 -0.0943 0.2561
vn -0.9530 -0.0718 0.2944
vn -0.7347 -0.1242 0.6669
vn -0.2870 -0.1211 0.9502
vn -0.7347 -0.1242 -0.6669
vn -0.9740 -0.1014 -0.2024
vn 0.7333 -0.1363 0.6661
vn 0.2869 -0.1256 0.9497
vn 0.7333 -0.1363 -0.6661
vn 0.9723 -0.1184 -0.2016
vn -0.0000 -0.1303 -0.9915
vn -0.2869 -0.1211 -0.9503
vn -0.9945 -0.1048 0.0000
vn -0.9740 -0.1014 0.2024
vn -0.0000 -0.1303 0.9915
vn 0.9926 -0.1217 0.0000
vn 0.9723 -0.1184 0.2016
vn 0.3798 -0.0863 -0.9210
vn 0.3469 -0.0936 -0.9332
vn 0.2867 -0.1256 -0.9497
usemtl Cementum.026
s 1
f 5//2 6//3 7//4 8//5
f 5//2 8//5 9//6 10//7
f 11//8 6//3 12//9 13//10
f 11//8 14//11 15//12 16//13
f 17//14 18//15 19//16 20//17
f 21//18 22//19 23//20 24//21
f 25//22 26//23 27//24 28//25
f 7//4 6//3 11//8 16//13
f 7//4 29//26 9//6 8//5
f 30//27 31//28 32//29 33//30
f 30//27 33//30 19//16 18//15
f 34//31 35//32 36//33 37//34
f 12//9 6//3 21//18 24//21
f 12//9 38//35 39//36 13//10
f 40//37 41//38 42//39 43//40
f 44//41 45//42 46//43 47//44
f 44//41 47//44 48//45 49//46
f 50//47 51//48 52//49 53//50
f 54//51 28//25 27//24 55//52
f 56//53 57//54 58//55 59//56
f 60//57 61//58 62//59 63//60
f 64//61 65//62 66//63 67//64
f 68//65 69//66 27//24 26//23
f 68//65 10//7 9//6 69//66
f 70//67 71//68 42//39 41//38
f 70//67 20//17 19//16 71//68
f 72//69 73//70 15//12 14//11
f 72//69 37//34 36//33 73//70
f 74//71 75//72 23//20 22//19
f 74//71 53//50 52//49 75//72
f 76//73 77//74 62//59 61//58
f 76//73 47//44 46//43 77//74
f 78//75 79//76 66//63 65//62
f 78//75 33//30 32//29 79//76
f 80//77 69//66 9//6 29//26
f 80//77 55//52 27//24 69//66
f 81//78 82//79 39//36 38//35
f 81//78 59//56 58//55 82//79
f 67//64 66//63 26//23 25//22
f 43//40 42//39 65//62 64//61
f 31//28 30//27 6//3 5//2
f 13//10 39//36 14//11 11//8
f 45//42 44//41 6//3 17//14
f 16//13 15//12 29//26 7//4
f 18//15 17//14 6//3 30//27
f 24//21 23//20 38//35 12//9
f 49//46 21//18 6//3 44//41
f 49//46 48//45 22//19 21//18
f 63//60 62//59 41//38 40//37
f 83//80 84//81 61//58 60//57
f 77//74 46//43 20//17 70//67
f 79//76 32//29 10//7 68//65
f 73//70 36//33 55//52 80//77
f 75//72 52//49 59//56 81//78
f 71//68 19//16 33//30 78//75
f 85//82 84//81 53//50 74//71
f 85//82 48//45 47//44 76//73
f 82//79 58//55 37//34 72//69
f 37//34 58//55 57//54 34//31
f 53//50 84//81 83//80 50//47
f 55//52 36//33 35//32 54//51
f 59//56 52//49 51//48 56//53
f 26//23 66//63 79//76 68//65
f 41//38 62//59 77//74 70//67
f 61//58 84//81 85//82 76//73
f 65//62 42//39 71//68 78//75
f 10//7 32//29 31//28 5//2
f 20//17 46//43 45//42 17//14
f 14//11 39//36 82//79 72//69
f 22//19 48//45 85//82 74//71
f 29//26 15//12 73//70 80//77
f 38//35 23//20 75//72 81//78
o cube1_D.025
v -2.504034 4.228394 0.004140
v -2.363286 4.228394 0.739694
v -1.539192 4.886493 0.483718
v -1.697143 4.886493 0.011750
v -2.595676 3.235801 0.004140
v -2.415121 3.235801 0.815695
v -1.539192 4.886493 -0.304132
v -2.363286 4.228394 -0.525920
v -1.631992 2.235123 1.686162
v -1.310284 2.235123 1.904363
v -1.420164 3.235801 1.658161
v -1.768422 3.235801 1.520365
v -1.868761 2.235123 -1.296252
v -2.283667 2.235123 -0.672898
v -2.415121 3.235801 -0.601922
v -2.025110 3.235801 -1.145133
v -2.430184 2.235123 0.070191
v -2.283667 2.235123 0.813281
v -2.221873 1.416969 0.004140
v -2.065120 1.416969 0.758141
v -2.025476 4.228394 1.153721
v -1.220421 4.898634 0.763500
v -2.025476 4.228394 -0.837201
v -1.584339 2.235123 -1.763981
v -1.660663 1.416970 -1.632406
v -2.065120 1.416969 -0.749861
v -1.740694 4.228394 -0.941025
v -1.548508 3.235801 -1.242564
v -1.387416 4.393053 1.254516
v -1.176779 3.235801 -1.171197
v -0.988575 2.235123 -1.982182
v -1.557684 1.416969 1.640686
v -1.053911 1.197425 -2.200732
vn -0.8771 0.4789 -0.0360
vn -0.7818 0.4767 0.4020
vn -0.5217 0.7845 0.3353
vn -0.5956 0.8028 -0.0294
vn -0.9992 -0.0314 -0.0253
vn -0.8977 -0.0106 0.4405
vn -0.5159 0.7557 -0.4034
vn -0.7612 0.4160 -0.4975
vn -0.6719 -0.0526 0.7388
vn -0.5402 0.0603 0.8394
vn -0.3779 0.2419 0.8937
vn -0.5866 0.1145 0.8018
vn -0.8301 -0.0630 -0.5540
vn -0.9176 -0.1365 -0.3732
vn -0.9067 -0.0079 -0.4218
vn -0.6424 0.1689 -0.7476
vn -0.9802 -0.1976 -0.0079
vn -0.9005 -0.1617 0.4037
vn -0.9508 -0.3099 -0.0004
vn -0.9031 -0.2682 0.3353
vn -0.4807 0.5053 0.7167
vn -0.3525 0.7257 0.5909
vn -0.3421 0.4811 -0.8072
vn -0.5923 0.1561 -0.7904
vn -0.8072 -0.1937 -0.5575
vn -0.9191 -0.2518 -0.3030
vn -0.1837 0.4759 -0.8601
vn -0.0887 0.4276 -0.8996
vn -0.2972 0.5204 0.8005
vn 0.1530 0.4904 -0.8580
vn -0.1697 0.4378 -0.8829
vn -0.7269 -0.1630 0.6671
vn -0.4633 -0.0562 -0.8844
usemtl D.026
s 1
f 86//83 87//84 88//85 89//86
f 86//83 90//87 91//88 87//84
f 86//83 89//86 92//89 93//90
f 94//91 95//92 96//93 97//94
f 98//95 99//96 100//97 101//98
f 102//99 103//100 91//88 90//87
f 102//99 104//101 105//102 103//100
f 87//84 106//103 107//104 88//85
f 93//90 101//98 100//97
f 93//90 100//97 90//87 86//83
f 93//90 92//89 108//105
f 97//94 91//88 103//100 94//91
f 101//98 93//90 108//105
f 101//98 109//106 98//95
f 90//87 100//97 99//96 102//99
f 99//96 98//95 110//107 111//108
f 99//96 111//108 104//101 102//99
f 108//105 92//89 112//109
f 108//105 113//110 101//98
f 106//103 87//84 91//88 97//94
f 106//103 97//94 96//93 114//111
f 115//112 116//113 113//110
f 117//114 95//92 94//91
f 105//102 117//114 94//91 103//100
f 118//115 109//106 116//113
f 109//106 101//98 113//110 116//113
f 109//106 118//115 110//107 98//95
f 112//109 115//112 113//110 108//105
f 114//111 107//104 106//103
o cube1_Enamel2.025
v -1.372323 0.215767 -1.404282
v -1.755095 0.509748 -0.757628
v -2.065120 1.416969 -0.749861
v -1.660663 1.416970 -1.632406
v 1.377530 0.215767 -1.404282
v 1.665871 1.416970 -1.632406
v 1.923965 1.416969 -0.749861
v 1.760302 0.509748 -0.757628
v 1.876658 0.653147 0.004551
v 2.080717 1.416969 0.004140
v 1.923965 1.416969 0.758141
v 1.760302 0.509748 0.766729
v 0.002604 -0.015259 -2.007892
v -0.739857 0.001153 -1.842938
v -1.053911 1.197425 -2.200732
v 0.002604 1.197425 -2.415052
v -1.871451 0.653147 0.004551
v -1.755095 0.509748 0.766729
v -2.065120 1.416969 0.758141
v -2.221873 1.416969 0.004140
v 0.002604 2.235123 2.324924
v -0.988575 2.235123 2.122565
v -0.887143 1.197424 2.282402
v 0.002604 1.197424 2.423332
v 0.002604 2.235123 -2.074456
v 0.548933 2.235123 -2.083362
v 1.562892 1.416969 1.640686
v 1.377530 0.215767 1.413383
v 0.745064 0.001153 -1.842938
v 1.062882 1.197425 -2.200732
v -0.988575 2.235123 -1.982182
v -0.541364 2.235123 -2.083362
v -1.557684 1.416969 1.640686
v -1.372323 0.215767 1.413383
v 0.892351 1.197424 2.282402
v 0.993783 2.235123 2.122565
v 0.993783 2.235123 -1.982182
v 1.315491 2.235123 1.904363
v -1.310284 2.235123 1.904363
vn -0.7796 -0.3147 -0.5415
vn -0.9061 -0.3295 -0.2652
vn -0.9191 -0.2518 -0.3030
vn -0.8072 -0.1937 -0.5575
vn 0.8065 -0.2880 -0.5164
vn 0.8341 -0.2003 -0.5140
vn 0.9415 -0.2242 -0.2517
vn 0.9431 -0.2223 -0.2471
vn 0.9768 -0.2142 0.0001
vn 0.9688 -0.2479 -0.0003
vn 0.9281 -0.2282 0.2943
vn 0.9387 -0.2024 0.2791
vn -0.0002 -0.3266 -0.9452
vn -0.4461 -0.3374 -0.8289
vn -0.4632 -0.0562 -0.8844
vn -0.0001 0.0702 -0.9975
vn -0.9302 -0.3670 0.0000
vn -0.9033 -0.3107 0.2960
vn -0.9031 -0.2682 0.3353
vn -0.9508 -0.3100 -0.0004
vn -0.0003 0.2150 0.9766
vn -0.3798 0.1609 0.9110
vn -0.4434 -0.1303 0.8868
vn 0.0000 -0.1146 0.9934
vn 0.0000 0.3119 -0.9501
vn 0.0321 0.4853 -0.8737
vn 0.7492 -0.1587 0.6430
vn 0.7962 -0.2403 0.5553
vn 0.4466 -0.3381 -0.8284
vn 0.4635 -0.0569 -0.8843
vn -0.1697 0.4378 -0.8829
vn 0.0385 0.5075 -0.8608
vn -0.7269 -0.1630 0.6671
vn -0.7709 -0.2682 0.5777
vn 0.4434 -0.1303 0.8868
vn 0.3743 0.1758 0.9105
vn 0.1682 0.4432 -0.8805
vn 0.7492 -0.1586 0.6430
vn 0.5401 0.0800 0.8378
vn -0.5402 0.0603 0.8394
usemtl Enamel2.026
s 1
f 119//116 120//117 121//118 122//119
f 123//120 124//121 125//122 126//123
f 127//124 128//125 129//126 130//127
f 131//128 132//129 133//130 134//131
f 135//132 136//133 137//134 138//135
f 139//136 140//137 141//138 142//139
f 143//140 144//141 134//131
f 130//127 129//126 145//142 146//143
f 126//123 125//122 128//125 127//124
f 147//144 148//145 124//121 123//120
f 149//146 150//147 134//131 133//130
f 151//148 137//134 136//133 152//149
f 122//119 133//130 132//129 119//116
f 134//131 148//145 147//144 131//128
f 134//131 150//147 143//140
f 138//135 121//118 120//117 135//132
f 142//139 153//150 154//151 139//136
f 148//145 134//131 144//141 155//152
f 153//150 145//153 156//154 154//151
f 157//155 151//148 141//138 140//137
o cube1_F.009
v 0.002604 4.393053 1.438239
v -0.048957 3.235801 1.985350
v 0.973993 3.235801 1.795956
v 1.044061 4.393053 1.354029
v -1.038854 4.393053 1.354029
v -1.071906 3.235801 1.795956
v 0.281058 5.161200 0.930563
v -0.481437 5.146895 0.893981
v 0.002604 2.235123 2.324924
v -0.988575 2.235123 2.122565
v 0.993783 2.235123 2.122565
v -1.387416 4.393053 1.254516
v -1.420164 3.235801 1.658161
v 1.354537 3.235801 1.658417
v 1.505624 4.393053 1.254131
v 1.043554 5.146895 0.893981
v -1.310284 2.235123 1.904363
v 1.315491 2.235123 1.904363
v -1.220421 4.898634 0.763500
v 1.610649 5.138792 0.789683
vn 0.0004 0.4702 0.8826
vn -0.0002 0.3531 0.9356
vn 0.2519 0.3163 0.9146
vn 0.1541 0.4358 0.8868
vn -0.1993 0.5012 0.8421
vn -0.2695 0.3112 0.9113
vn 0.0003 0.5950 0.8037
vn -0.1746 0.6515 0.7383
vn -0.0003 0.2150 0.9766
vn -0.3798 0.1609 0.9110
vn 0.3744 0.1758 0.9105
vn -0.2972 0.5204 0.8005
vn -0.3779 0.2419 0.8937
vn 0.3734 0.2434 0.8952
vn 0.2393 0.3951 0.8869
vn 0.1044 0.5892 0.8012
vn -0.5402 0.0603 0.8394
vn 0.5401 0.0800 0.8378
vn -0.3525 0.7257 0.5909
vn 0.3950 0.6327 0.6661
usemtl F.009
s 1
f 158//156 159//157 160//158 161//159
f 158//156 162//160 163//161 159//157
f 158//156 164//162 165//163 162//160
f 166//164 159//157 163//161 167//165
f 166//164 168//166 160//158 159//157
f 162//160 169//167 170//168 163//161
f 161//159 160//158 171//169 172//170
f 161//159 173//171 164//162 158//156
f 167//165 163//161 170//168 174//172
f 160//158 168//166 175//173 171//169
f 165//163 176//174 169//167 162//160
f 172//170 177//175 173//171 161//159
o cube1_I.009
v 0.315136 5.663833 0.514560
v 0.020946 5.635224 0.510810
v -0.481437 5.146895 0.893981
v 0.281058 5.161200 0.930563
v 0.345657 5.955300 -0.076757
v 0.315136 5.663833 -0.502455
v 0.609325 5.635224 -0.498705
v 0.630019 5.154047 -0.732687
v 0.216484 5.161200 -0.750978
v -0.661782 5.626692 0.011312
v -0.528901 5.626692 -0.288502
v -1.697143 4.886493 0.011750
v -1.539192 4.886493 0.483718
v -0.528901 5.626692 0.311126
v 1.292053 5.626692 0.011312
v 1.159172 5.626692 0.311126
v 1.964093 4.859050 0.483718
v 2.122044 4.859050 0.011750
v -1.220421 4.898634 0.763500
v -0.253977 5.630958 0.479379
v 1.159172 5.626692 -0.288502
v 1.964093 4.859050 -0.304132
v 1.691240 5.144762 -0.566502
v 0.884249 5.630958 -0.467273
v 0.884249 5.630958 0.479379
v 1.610649 5.138792 0.789683
v -0.253977 5.630958 -0.467273
v -1.129124 5.144762 -0.566502
v -1.539192 4.886493 -0.304132
v 0.609325 5.635224 0.510810
v 1.043554 5.146895 0.893981
v 0.020946 5.635224 -0.498705
v -0.481437 5.146895 -0.714395
v -0.132477 5.154047 -0.732687
v 1.043554 5.146895 -0.714395
vn -0.0001 0.7868 0.6172
vn -0.1256 0.7982 0.5892
vn -0.1746 0.6515 0.7383
vn 0.0003 0.5950 0.8037
vn 0.0037 0.9991 -0.0417
vn -0.0016 0.6558 -0.7550
vn 0.0889 0.6188 -0.7805
vn 0.0543 0.2440 -0.9683
vn -0.0030 0.2734 -0.9619
vn -0.4487 0.8935 -0.0166
vn -0.4151 0.8679 -0.2726
vn -0.5956 0.8027 -0.0294
vn -0.5217 0.7845 0.3353
vn -0.3815 0.8724 0.3055
vn 0.5104 0.8597 -0.0190
vn 0.4443 0.8599 0.2515
vn 0.7311 0.6161 0.2931
vn 0.8037 0.5938 -0.0388
vn -0.3525 0.7257 0.5909
vn -0.2490 0.8292 0.5004
vn 0.4692 0.8409 -0.2697
vn 0.7335 0.5933 -0.3316
vn 0.4089 0.5285 -0.7440
vn 0.2915 0.7908 -0.5382
vn 0.2519 0.8488 0.4649
vn 0.3950 0.6327 0.6661
vn -0.2625 0.7965 -0.5447
vn -0.3761 0.6089 -0.6985
vn -0.5159 0.7557 -0.4034
vn 0.0869 0.7871 0.6107
vn 0.1044 0.5892 0.8012
vn -0.0913 0.6296 -0.7715
vn -0.0478 0.3160 -0.9476
vn -0.0589 0.2645 -0.9626
vn 0.0377 0.3198 -0.9467
usemtl I.009
s 1
f 178//176 179//177 180//178 181//179
f 178//176 182//180 179//177
f 183//181 184//182 185//183 186//184
f 183//181 182//180 184//182
f 187//185 182//180 188//186
f 187//185 189//187 190//188 191//189
f 192//190 193//191 194//192 195//193
f 192//190 182//180 193//191
f 191//189 182//180 187//185
f 191//189 190//188 196//194 197//195
f 198//196 182//180 192//190
f 198//196 199//197 200//198 201//199
f 193//191 182//180 202//200
f 193//191 202//200 203//201 194//192
f 188//186 182//180 204//202
f 188//186 204//202 205//203 206//204
f 207//205 182//180 178//176
f 207//205 208//206 203//201 202//200
f 209//207 182//180 183//181
f 209//207 210//208 205//203 204//202
f 209//207 211//209 210//208
f 184//182 182//180 201//199
f 179//177 182//180 197//195
f 204//202 182//180 209//207
f 197//195 182//180 191//189
f 197//195 196//194 180//178 179//177
f 201//199 182//180 198//196
f 201//199 200//198 212//210 184//182
f 202//200 182//180 207//205
f 181//179 208//206 207//205 178//176
f 186//184 211//209 209//207 183//181
f 195//193 199//197 198//196 192//190
f 206//204 189//187 187//185 188//186
f 212//210 185//183 184//182
o cube1_L.025
v 0.034891 4.393053 -0.872192
v 0.216484 5.161200 -0.750978
v 0.630019 5.154047 -0.732687
v 0.594344 4.393053 -0.712663
v -0.551259 4.393053 -0.712663
v -0.132477 5.154047 -0.732687
v 0.002604 2.235123 -2.074456
v -0.541364 2.235123 -2.083362
v -0.615554 2.979665 -0.964993
v -0.048957 3.235801 -1.265184
v 0.509690 3.235801 -0.964993
v 0.548933 2.235123 -2.083362
v -1.038854 4.393053 -0.787982
v -0.481437 5.146895 -0.714395
v -1.740694 4.228394 -0.941025
v -1.129124 5.144762 -0.566502
v 1.044061 4.393053 -0.787982
v 1.043554 5.146895 -0.714395
v 1.691240 5.144762 -0.566502
v 1.622990 4.393053 -0.941025
v 0.993783 2.235123 -1.982182
v 1.073710 3.235801 -1.171197
v -1.176779 3.235801 -1.171197
v -0.988575 2.235123 -1.982182
v -1.539192 4.886493 -0.304132
vn -0.0108 0.1702 -0.9853
vn -0.0030 0.2734 -0.9619
vn 0.0543 0.2440 -0.9683
vn 0.0587 0.1456 -0.9876
vn -0.0582 0.1513 -0.9868
vn -0.0589 0.2645 -0.9626
vn -0.0740 0.7120 -0.6983
vn -0.3284 0.6895 -0.6456
vn -0.3795 0.4829 -0.7892
vn -0.0489 0.5069 -0.8606
vn 0.2886 0.4724 -0.8328
vn 0.1855 0.6860 -0.7035
vn 0.1204 0.1964 -0.9731
vn -0.0478 0.3160 -0.9476
vn -0.1837 0.4759 -0.8601
vn -0.3761 0.6089 -0.6985
vn -0.1446 0.2235 -0.9639
vn 0.0377 0.3198 -0.9467
vn 0.4088 0.5285 -0.7440
vn 0.0307 0.3144 -0.9488
vn 0.1682 0.4432 -0.8805
vn 0.0321 0.4854 -0.8737
vn -0.1152 0.4804 -0.8695
vn 0.1530 0.4904 -0.8580
vn 0.0385 0.5075 -0.8608
vn -0.1697 0.4378 -0.8829
vn -0.1152 0.4803 -0.8695
vn 0.0320 0.4853 -0.8737
vn -0.2578 0.5092 -0.8212
vn -0.5159 0.7557 -0.4034
vn 0.4321 0.5064 -0.7462
usemtl L.026
s 1
f 213//211 214//212 215//213 216//214
f 213//211 217//215 218//216 214//212
f 219//217 220//218 221//219 222//220
f 222//220 221//219 217//215 213//211
f 222//220 223//221 224//222 219//217
f 225//223 226//224 218//216 217//215
f 225//223 227//225 228//226 226//224
f 229//227 230//228 231//229 232//230
f 229//227 216//214 215//213 230//228
f 233//231 224//232 234//233
f 235//234 227//225 225//223
f 235//234 220//235 236//236
f 234//237 224//238 223//239
f 228//226 227//225 237//240
f 232//230 234//237 229//227
f 216//214 223//221 222//220 213//211
f 221//241 220//235 235//234
f 217//215 221//241 235//234 225//223
f 223//239 216//214 229//227 234//237
o cube1_M.025
v 2.436059 4.109474 0.004140
v 2.295312 4.109474 0.739694
v 2.335503 3.235801 0.815695
v 2.461173 3.235801 0.004140
v 2.335503 3.235801 -0.601922
v 2.295312 4.109474 -0.525920
v 2.122044 4.859050 0.011750
v 1.964093 4.859050 0.483718
v 1.637200 2.235123 1.686162
v 1.670509 3.235801 1.520365
v 1.354537 3.235801 1.658417
v 1.315491 2.235123 1.904363
v 2.197397 2.235123 0.813281
v 1.562892 1.416969 1.640686
v 1.877733 2.235123 -1.296252
v 2.197397 2.235123 -0.672898
v 1.923965 1.416969 -0.749861
v 1.665871 1.416970 -1.632406
v 2.289028 2.235123 0.070191
v 1.923965 1.416969 0.758141
v 2.080717 1.416969 0.004140
v 1.610649 5.138792 0.789683
v 1.902616 4.393053 1.153721
v 1.902616 4.393053 -0.837201
v 1.691240 5.144762 -0.566502
v 1.964093 4.859050 -0.304132
v 1.915905 3.235801 -1.145133
v 1.593311 2.235123 -1.763981
v 0.993783 2.235123 -1.982182
v 1.444949 3.235801 -1.242564
v 1.505624 4.393053 1.254131
v 1.622990 4.393053 -0.941025
v 1.062882 1.197425 -2.200732
v 1.073710 3.235801 -1.171197
vn 0.9696 0.2418 -0.0375
vn 0.8823 0.2694 0.3860
vn 0.9095 -0.0112 0.4156
vn 0.9984 -0.0531 -0.0201
vn 0.9196 -0.0078 -0.3927
vn 0.8448 0.2434 -0.4766
vn 0.8037 0.5938 -0.0388
vn 0.7310 0.6162 0.2931
vn 0.6989 -0.0431 0.7139
vn 0.5974 0.1227 0.7925
vn 0.3734 0.2434 0.8952
vn 0.5401 0.0800 0.8378
vn 0.9208 -0.1715 0.3502
vn 0.7492 -0.1587 0.6430
vn 0.8537 -0.0477 -0.5185
vn 0.9390 -0.1566 -0.3061
vn 0.9415 -0.2242 -0.2518
vn 0.8341 -0.2003 -0.5140
vn 0.9763 -0.2166 -0.0054
vn 0.9281 -0.2282 0.2943
vn 0.9688 -0.2479 -0.0003
vn 0.3950 0.6327 0.6661
vn 0.5418 0.3532 0.7627
vn 0.4327 0.3253 -0.8408
vn 0.4088 0.5285 -0.7440
vn 0.7335 0.5933 -0.3316
vn 0.6461 0.1862 -0.7402
vn 0.5901 0.1882 -0.7851
vn 0.1681 0.4432 -0.8805
vn 0.0891 0.4131 -0.9063
vn 0.2393 0.3952 0.8869
vn 0.0307 0.3144 -0.9488
vn 0.4635 -0.0569 -0.8843
vn -0.1152 0.4804 -0.8695
usemtl M.026
s 1
f 238//242 239//243 240//244 241//245
f 238//242 241//245 242//246 243//247
f 238//242 244//248 245//249 239//243
f 246//250 247//251 248//252 249//253
f 246//250 250//254 240//244 247//251
f 246//250 249//253 251//255
f 252//256 253//257 254//258 255//259
f 256//260 250//254 257//261 258//262
f 256//260 253//257 242//246 241//245
f 239//243 245//249 259//263 260//264
f 243//247 261//265 262//266 263//267
f 243//247 263//267 244//248 238//242
f 247//251 240//244 239//243 260//264
f 264//268 242//246 253//257 252//256
f 264//268 265//269 266//270 267//271
f 264//268 267//271 261//265
f 241//245 240//244 250//254 256//260
f 242//246 264//268 243//247
f 260//264 268//272 248//252 247//251
f 261//265 243//247 264//268
f 261//265 269//273 262//266
f 266//270 265//269 270//274
f 271//275 267//271 266//270
f 271//275 269//273 261//265 267//271
f 251//255 257//261 250//254 246//250
f 255//259 270//274 265//269 252//256
f 258//262 254//258 253//257 256//260
f 259//263 268//272 260//264
f 265//269 264//268 252//256
o cube1_V.025
v -1.372323 0.215767 1.413383
v -0.739857 0.001153 1.852039
v -0.887143 1.197424 2.282402
v -1.557684 1.416969 1.640686
v 1.377530 0.215767 1.413383
v 1.562892 1.416969 1.640686
v 0.892351 1.197424 2.282402
v 0.745064 0.001153 1.852039
v 0.002604 -0.015259 2.016993
v 0.002604 1.197424 2.423332
vn -0.7709 -0.2682 0.5777
vn -0.4383 -0.3193 0.8402
vn -0.4434 -0.1303 0.8868
vn -0.7269 -0.1630 0.6671
vn 0.7962 -0.2403 0.5553
vn 0.7492 -0.1587 0.6430
vn 0.4434 -0.1303 0.8868
vn 0.4383 -0.3193 0.8402
vn 0.0000 -0.3379 0.9412
vn 0.0000 -0.1146 0.9934
usemtl V.026
s 1
f 272//276 273//277 274//278 275//279
f 276//280 277//281 278//282 279//283
f 280//284 281//285 274//278 273//277
f 279//283 278//282 281//285 280//284
o cube1_default.023
v 0.739584 -2.111647 0.003035
v -0.738976 -2.112163 0.003037
v -0.870045 0.009469 -0.003035
v 0.869438 0.010076 -0.003037
vn -0.0000 -0.0029 -1.0000
usemtl default.024
s 1
f 282//286 283//286 284//286 285//286
