# Blender v3.0.1 OBJ File: ''
# www.blender.org
mtllib toothD.mtl
o cube1_Buildup.022
v 0.697962 2.479153 0.010385
v -0.707835 2.474246 0.010349
v -1.009082 -0.209936 -0.010393
v 0.004937 0.007639 -0.010367
v 1.018955 -0.202857 -0.010341
vn 0.0000 -0.0081 1.0000
usemtl Buildup.023
s 1
f 1//1 2//1 3//1 4//1 5//1
o cube1_Cementum.022
v 0.267853 11.050597 0.333719
v -0.054850 11.407154 0.044427
v -0.064082 11.050597 0.415315
v 0.101886 11.050597 0.374517
v 0.302140 9.328140 0.889177
v 0.637119 9.328140 0.794458
v -0.396017 11.050597 0.333719
v -0.489639 11.050597 0.044427
v -0.442828 11.050597 0.189073
v -0.702797 9.328140 0.794458
v -0.367818 9.328140 0.889177
v -0.230049 11.050597 0.374517
v 0.267853 11.050597 -0.244866
v 0.314664 11.050597 -0.100220
v 0.709989 9.328140 -0.327831
v 0.637119 9.328140 -0.701927
v -0.396017 11.050597 -0.244866
v -0.702797 9.328140 -0.701927
v -0.775667 9.328140 -0.327831
v -0.442828 11.050597 -0.100220
v 1.313532 -0.509805 1.307206
v 1.137556 3.236012 1.184774
v 0.582436 3.236012 1.447383
v 0.696574 -0.082868 1.708513
v -0.032839 9.328140 0.983896
v 0.361476 11.050597 0.044427
v 0.314664 11.050597 0.189073
v 0.709989 9.328140 0.420362
v 0.782860 9.328140 0.046265
v -1.368893 -0.509805 1.328163
v -0.751935 -0.082868 1.708513
v -0.637797 3.236012 1.447383
v -1.192917 3.236012 1.184774
v -0.848537 9.328140 0.046265
v -0.775667 9.328140 0.420362
v 1.313532 -0.509805 -1.270554
v 1.137556 3.236012 -1.148122
v 1.375832 3.236012 -0.590867
v 1.686919 -0.828440 -0.666995
v -0.064082 11.050597 -0.326461
v 0.101886 11.050597 -0.285664
v 0.302140 9.328140 -0.796646
v -0.032839 9.328140 -0.891365
v -0.367818 9.328140 -0.796646
v -0.230049 11.050597 -0.285664
v -1.368893 -0.509805 -1.291511
v -1.742279 -0.828440 -0.666995
v -1.431192 3.236012 -0.590867
v -1.192917 3.236012 -1.148122
v -0.027680 -0.065080 1.859422
v -0.027680 3.236012 1.586940
v -1.855782 -0.983864 0.018326
v -1.742279 -0.828440 0.703647
v -1.431192 3.236012 0.627519
v -1.536262 3.236012 0.018326
v -0.027680 -0.065080 -1.822770
v -0.027680 3.236012 -1.550288
v 0.582436 3.236012 -1.410730
v 0.696574 -0.082868 -1.671861
v 1.800421 -0.983864 0.018326
v 1.480901 3.236012 0.018326
v 1.375832 3.236012 0.627519
v 1.686919 -0.828440 0.703647
v 0.886404 7.109389 1.069530
v 0.433516 7.109389 1.198493
v 0.886404 7.109389 -1.032877
v 0.975302 7.109389 -0.507275
v -0.925147 7.109389 1.069530
v -0.472259 7.109389 1.198493
v -0.925147 7.109389 -1.032877
v -1.014045 7.109389 -0.507275
v -0.019371 7.109389 -1.290804
v 0.433516 7.109389 -1.161840
v 1.064200 7.109389 0.018326
v 0.975302 7.109389 0.543928
v -0.019371 7.109389 1.327457
v -1.102943 7.109389 0.018326
v -1.014045 7.109389 0.543928
v -0.751935 -0.082868 -1.671861
v -0.637797 3.236012 -1.410730
v -0.472259 7.109389 -1.161840
vn 0.5733 0.5761 0.5826
vn 0.0056 1.0000 0.0000
vn 0.0001 0.5338 0.8456
vn 0.2278 0.4501 0.8635
vn 0.2603 0.2269 0.9385
vn 0.7108 0.2426 0.6603
vn -0.5743 0.5731 0.5846
vn -0.8530 0.5220 -0.0000
vn -0.8824 0.4139 0.2238
vn -0.7142 0.2266 0.6623
vn -0.2606 0.2211 0.9398
vn -0.2283 0.4466 0.8651
vn 0.5735 0.5756 -0.5829
vn 0.8759 0.4281 -0.2226
vn 0.9621 0.1887 -0.1971
vn 0.7097 0.2498 -0.6587
vn -0.5745 0.5726 -0.5849
vn -0.7132 0.2338 -0.6608
vn -0.9660 0.1662 -0.1980
vn -0.8825 0.4136 -0.2238
vn 0.7290 0.0700 0.6809
vn 0.7300 0.0765 0.6792
vn 0.3350 0.0706 0.9396
vn 0.3664 0.0758 0.9274
vn -0.0002 0.2331 0.9725
vn 0.8497 0.5273 -0.0000
vn 0.8758 0.4284 0.2226
vn 0.9624 0.1868 0.1971
vn 0.9825 0.1865 0.0001
vn -0.7271 0.0721 0.6827
vn -0.3604 0.0769 0.9296
vn -0.3321 0.0718 0.9405
vn -0.7289 0.0791 0.6800
vn -0.9865 0.1638 0.0000
vn -0.9664 0.1641 0.1980
vn 0.7290 0.0700 -0.6809
vn 0.7300 0.0765 -0.6792
vn 0.9597 0.0847 -0.2679
vn 0.9488 0.0726 -0.3076
vn 0.0001 0.5330 -0.8461
vn 0.2278 0.4489 -0.8640
vn 0.2596 0.2374 -0.9361
vn -0.0002 0.2440 -0.9698
vn -0.2600 0.2317 -0.9374
vn -0.2284 0.4455 -0.8657
vn -0.7271 0.0721 -0.6827
vn -0.9499 0.0731 -0.3040
vn -0.9600 0.0871 -0.2661
vn -0.7289 0.0791 -0.6800
vn 0.0000 0.0841 0.9965
vn -0.0002 0.0774 0.9970
vn -0.9970 0.0774 0.0000
vn -0.9499 0.0731 0.3040
vn -0.9600 0.0871 0.2661
vn -0.9956 0.0940 -0.0000
vn 0.0000 0.0841 -0.9965
vn -0.0002 0.0774 -0.9970
vn 0.3350 0.0706 -0.9396
vn 0.3664 0.0756 -0.9274
vn 0.9970 0.0774 0.0000
vn 0.9958 0.0919 0.0000
vn 0.9597 0.0847 0.2679
vn 0.9488 0.0726 0.3076
vn 0.7320 0.1221 0.6703
vn 0.2870 0.1071 0.9519
vn 0.7316 0.1301 -0.6693
vn 0.9728 0.1139 -0.2019
vn -0.7323 0.1195 0.6704
vn -0.2871 0.1061 0.9520
vn -0.7319 0.1274 -0.6694
vn -0.9732 0.1101 -0.2019
vn -0.0000 0.1238 -0.9923
vn 0.2868 0.1188 -0.9506
vn 0.9931 0.1175 -0.0001
vn 0.9730 0.1117 0.2019
vn 0.0000 0.1116 0.9938
vn -0.9935 0.1137 0.0000
vn -0.9734 0.1079 0.2020
vn -0.3604 0.0770 -0.9296
vn -0.3321 0.0718 -0.9405
vn -0.2863 0.1179 -0.9509
usemtl Cementum.023
s 1
f 6//2 7//3 8//4 9//5
f 6//2 9//5 10//6 11//7
f 12//8 7//3 13//9 14//10
f 12//8 15//11 16//12 17//13
f 18//14 19//15 20//16 21//17
f 22//18 23//19 24//20 25//21
f 26//22 27//23 28//24 29//25
f 8//4 7//3 12//8 17//13
f 8//4 30//26 10//6 9//5
f 31//27 32//28 33//29 34//30
f 31//27 34//30 20//16 19//15
f 35//31 36//32 37//33 38//34
f 13//9 7//3 22//18 25//21
f 13//9 39//35 40//36 14//10
f 41//37 42//38 43//39 44//40
f 45//41 46//42 47//43 48//44
f 45//41 48//44 49//45 50//46
f 51//47 52//48 53//49 54//50
f 55//51 29//25 28//24 56//52
f 57//53 58//54 59//55 60//56
f 61//57 62//58 63//59 64//60
f 65//61 66//62 67//63 68//64
f 69//65 70//66 28//24 27//23
f 69//65 11//7 10//6 70//66
f 71//67 72//68 43//39 42//38
f 71//67 21//17 20//16 72//68
f 73//69 74//70 16//12 15//11
f 73//69 38//34 37//33 74//70
f 75//71 76//72 24//20 23//19
f 75//71 54//50 53//49 76//72
f 77//73 78//74 63//59 62//58
f 77//73 48//44 47//43 78//74
f 79//75 80//76 67//63 66//62
f 79//75 34//30 33//29 80//76
f 81//77 70//66 10//6 30//26
f 81//77 56//52 28//24 70//66
f 82//78 83//79 40//36 39//35
f 82//78 60//56 59//55 83//79
f 68//64 67//63 27//23 26//22
f 44//40 43//39 66//62 65//61
f 32//28 31//27 7//3 6//2
f 14//10 40//36 15//11 12//8
f 46//42 45//41 7//3 18//14
f 17//13 16//12 30//26 8//4
f 19//15 18//14 7//3 31//27
f 25//21 24//20 39//35 13//9
f 50//46 22//18 7//3 45//41
f 50//46 49//45 23//19 22//18
f 64//60 63//59 42//38 41//37
f 84//80 85//81 62//58 61//57
f 78//74 47//43 21//17 71//67
f 80//76 33//29 11//7 69//65
f 74//70 37//33 56//52 81//77
f 76//72 53//49 60//56 82//78
f 72//68 20//16 34//30 79//75
f 86//82 85//81 54//50 75//71
f 86//82 49//45 48//44 77//73
f 83//79 59//55 38//34 73//69
f 11//7 33//29 32//28 6//2
f 21//17 47//43 46//42 18//14
f 38//34 59//55 58//54 35//31
f 54//50 85//81 84//80 51//47
f 56//52 37//33 36//32 55//51
f 60//56 53//49 52//48 57//53
f 27//23 67//63 80//76 69//65
f 42//38 63//59 78//74 71//67
f 15//11 40//36 83//79 73//69
f 23//19 49//45 86//82 75//71
f 62//58 85//81 86//82 77//73
f 66//62 43//39 72//68 79//75
f 30//26 16//12 74//70 81//77
f 39//35 24//20 76//72 82//78
o cube1_D.022
v -2.594353 -4.153850 0.018326
v -2.448639 -4.153850 0.675505
v -2.355120 -3.003123 0.679195
v -2.483189 -3.003123 0.018326
v -2.355120 -3.003123 -0.642543
v -2.448639 -4.153850 -0.411038
v -2.516860 -4.773283 0.018326
v -2.348564 -4.663400 0.358995
v -1.776501 -2.177720 1.373088
v -2.124633 -3.003123 1.183887
v -1.276171 -3.003123 1.626546
v -1.002352 -2.177720 1.809671
v -2.086971 -2.177720 0.641301
v -2.177076 -2.177720 0.018326
v -2.086971 -2.177720 -0.604649
v -2.301364 -4.153850 0.780315
v -2.471106 -4.653424 -0.313906
v -2.268233 -4.153850 -0.583349
v -1.541777 -4.153850 1.073716
v -2.036357 -3.003123 -0.970046
v -1.635052 -2.177720 -1.336436
v -2.114212 -5.131750 0.018326
v -1.939109 -5.063815 0.351098
v -1.601544 -4.153850 -0.679721
v -1.681548 -4.731815 -0.532304
v -1.986749 -4.983486 -0.334468
v -0.969213 -2.177720 -1.533547
v -1.363202 -3.003123 -1.033021
v -1.681548 -4.717105 0.720329
vn -0.9992 -0.0403 0.0056
vn -0.8670 -0.1786 0.4651
vn -0.9281 0.1821 0.3247
vn -0.9784 0.2065 -0.0104
vn -0.8883 0.1324 -0.4397
vn -0.8648 -0.0536 -0.4993
vn -0.8776 -0.4782 0.0335
vn -0.5937 -0.4975 0.6324
vn -0.7391 0.1378 0.6594
vn -0.6991 -0.0015 0.7150
vn -0.2319 -0.2822 0.9309
vn -0.3334 -0.1352 0.9330
vn -0.9222 0.2682 0.2786
vn -0.9618 0.2739 -0.0000
vn -0.9088 0.2282 -0.3492
vn -0.5577 -0.3432 0.7558
vn -0.6054 -0.3460 -0.7168
vn -0.4523 -0.2058 -0.8678
vn -0.2423 -0.4357 0.8669
vn -0.4889 -0.1524 -0.8589
vn -0.6100 -0.0713 -0.7892
vn -0.6026 -0.7979 -0.0160
vn -0.5036 -0.6141 0.6077
vn 0.0542 -0.2660 -0.9624
vn -0.1581 -0.3023 -0.9400
vn -0.4249 -0.5625 -0.7093
vn 0.0182 -0.5388 -0.8423
vn 0.2446 -0.4712 -0.8474
vn -0.2855 -0.5148 0.8084
usemtl D.023
s 1
f 87//83 88//84 89//85 90//86
f 87//83 90//86 91//87 92//88
f 87//83 93//89 94//90 88//84
f 95//91 96//92 97//93 98//94
f 95//91 99//95 89//85 96//92
f 100//96 101//97 91//87 90//86
f 88//84 102//98 96//92 89//85
f 92//88 103//99 93//89 87//83
f 92//88 104//100 103//99
f 96//92 102//98 105//101 97//93
f 106//102 91//87 101//97 107//103
f 90//86 89//85 99//95 100//96
f 91//87 106//102 104//100 92//88
f 93//89 108//104 109//105 94//90
f 110//106 111//107 103//99 104//100
f 103//99 112//108 108//104 93//89
f 94//90 102//98 88//84
f 113//109 114//110 106//102 107//103
f 102//98 94//90 115//111 105//101
f 114//110 110//106 104//100 106//102
f 111//107 112//108 103//99
f 109//105 115//111 94//90
o cube1_Enamel2.022
v 1.313532 -0.509805 1.307206
v 0.696574 -0.082868 1.708513
v 1.381070 -1.173761 1.500437
v -1.368893 -0.509805 1.328163
v -1.436431 -1.173761 1.500437
v -0.751935 -0.082868 1.708513
v 1.313532 -0.509805 -1.270554
v 1.686919 -0.828440 -0.666995
v 1.833645 -1.349034 -0.606211
v 1.316413 -1.173761 -1.615662
v -1.368893 -0.509805 -1.291511
v -1.371773 -1.173761 -1.615662
v -1.889006 -1.349034 -0.606211
v -1.742279 -0.828440 -0.666995
v -1.855782 -0.983864 0.018326
v -2.040860 -1.488564 0.018326
v -1.889006 -1.349034 0.642864
v -1.742279 -0.828440 0.703647
v -0.027680 -0.065080 -1.822770
v 0.696574 -0.082868 -1.671861
v 0.834265 -1.241316 -1.868754
v -0.027680 -1.241316 -1.985485
v 1.800421 -0.983864 0.018326
v 1.686919 -0.828440 0.703647
v 1.833645 -1.349034 0.642864
v 1.985500 -1.488564 0.018326
v -1.776501 -2.177720 1.373088
v -1.002352 -2.177720 1.809671
v -0.945989 -1.845197 1.922057
v -1.635052 -2.177720 -1.336436
v -2.086971 -2.177720 -0.604649
v 1.721141 -2.177720 1.373088
v 0.890628 -1.845197 1.922057
v 0.946991 -2.177720 1.809671
v -0.027680 -2.177720 1.979320
v -0.027680 -1.845197 2.065247
v -2.177076 -2.177720 0.018326
v -2.086971 -2.177720 0.641301
v 2.121715 -2.177720 0.018326
v 2.031610 -2.177720 0.641301
v 2.031610 -2.177720 -0.604649
v 1.579692 -2.177720 -1.336436
v -0.751935 -0.082868 -1.671861
v -0.969213 -2.177720 -1.533547
v -0.889626 -1.241316 -1.868754
v -0.027680 -1.709518 -1.973377
v -0.432169 -2.177720 -1.618371
v 0.913852 -2.177720 -1.533547
v 0.376808 -2.177720 -1.618371
vn 0.7784 0.2440 0.5784
vn 0.4750 0.2183 0.8525
vn 0.7095 0.1732 0.6831
vn -0.7717 0.2319 0.5921
vn -0.7065 0.1690 0.6872
vn -0.4665 0.2116 0.8588
vn 0.7866 0.2833 -0.5487
vn 0.9255 0.2589 -0.2765
vn 0.9284 0.2207 -0.2989
vn 0.6874 0.1462 -0.7114
vn -0.7815 0.2749 -0.5601
vn -0.6842 0.1423 -0.7153
vn -0.9290 0.2188 -0.2984
vn -0.9268 0.2551 -0.2756
vn -0.9536 0.3012 -0.0000
vn -0.9660 0.2584 0.0000
vn -0.9296 0.2382 0.2812
vn -0.9266 0.2526 0.2785
vn -0.0000 0.1619 -0.9868
vn 0.4369 0.2435 -0.8659
vn 0.3053 -0.0360 -0.9516
vn -0.0000 -0.0625 -0.9980
vn 0.9536 0.3012 -0.0000
vn 0.9253 0.2563 0.2796
vn 0.9290 0.2400 0.2818
vn 0.9660 0.2584 0.0000
vn -0.7391 0.1378 0.6594
vn -0.3334 -0.1352 0.9330
vn -0.3744 -0.0315 0.9267
vn -0.6099 -0.0713 -0.7892
vn -0.9088 0.2282 -0.3493
vn 0.7391 0.1378 0.6594
vn 0.3744 -0.0315 0.9267
vn 0.3334 -0.1352 0.9330
vn 0.0000 -0.2633 0.9647
vn -0.0000 -0.1099 0.9939
vn -0.9618 0.2739 0.0000
vn -0.9222 0.2682 0.2786
vn 0.9618 0.2739 -0.0000
vn 0.9222 0.2682 0.2786
vn 0.9088 0.2282 -0.3493
vn 0.6100 -0.0713 -0.7892
vn -0.4299 0.2391 -0.8706
vn 0.0182 -0.5388 -0.8423
vn -0.3054 -0.0360 -0.9516
vn -0.0000 -0.6942 -0.7198
vn 0.4802 -0.7053 -0.5215
vn -0.0182 -0.5388 -0.8423
vn -0.4802 -0.7053 -0.5215
usemtl Enamel2.023
s 1
f 116//112 117//113 118//114
f 119//115 120//116 121//117
f 122//118 123//119 124//120 125//121
f 126//122 127//123 128//124 129//125
f 130//126 131//127 132//128 133//129
f 134//130 135//131 136//132 137//133
f 138//134 139//135 140//136 141//137
f 142//138 143//139 144//140 120//116
f 145//141 146//142 128//124 127//123
f 147//143 118//114 148//144 149//145
f 150//146 149//145 148//144 151//147
f 152//148 153//149 132//128 131//127
f 154//150 141//137 140//136 155//151
f 156//152 157//153 125//121 124//120
f 156//152 124//120 141//137 154//150
f 133//129 132//128 120//116 119//115
f 129//125 128//124 131//127 130//126
f 135//131 125//121 136//132
f 158//154 127//123 126//122
f 159//155 160//156 137//133 161//157 162//158
f 163//159 136//132 125//121 157//153
f 118//114 140//136 139//135 116//112
f 125//121 135//131 122//118
f 137//133 160//156 158//154 134//130
f 141//137 124//120 123//119 138//134
f 120//116 132//128 153//149 142//138
f 127//123 160//156 159//155 145//141
f 131//127 128//124 146//142 152//148
f 140//136 118//114 147//143 155//151
f 160//156 127//123 158//154
f 164//160 161//157 137//133 136//132 163//159
f 151//147 144//140 143//139 150//146
o cube1_F.006
v -0.027680 -4.153850 1.193514
v -0.027680 -3.003123 1.700428
v -1.276171 -3.003123 1.626546
v -0.937686 -4.153850 1.135581
v 0.882325 -4.153850 1.135581
v 1.220811 -3.003123 1.626546
v -0.027680 -4.737687 0.819509
v 0.853152 -4.725035 0.790330
v -0.027680 -2.177720 1.979320
v 0.946991 -2.177720 1.809671
v -1.002352 -2.177720 1.809671
v -1.541777 -4.153850 1.073716
v -1.681548 -4.717105 0.720329
v -0.908512 -4.725035 0.790330
v 1.486416 -4.153850 1.073716
v 1.626187 -4.723149 0.770314
vn 0.0000 -0.4683 0.8836
vn -0.0000 -0.3302 0.9439
vn -0.2319 -0.2822 0.9309
vn -0.0697 -0.4669 0.8816
vn 0.0616 -0.4600 0.8858
vn 0.2319 -0.2822 0.9309
vn 0.0000 -0.5244 0.8515
vn 0.0310 -0.5082 0.8607
vn -0.0000 -0.2632 0.9647
vn 0.3334 -0.1352 0.9330
vn -0.3334 -0.1352 0.9330
vn -0.2423 -0.4357 0.8669
vn -0.2855 -0.5148 0.8084
vn -0.0667 -0.5243 0.8489
vn 0.2136 -0.3877 0.8967
vn 0.1307 -0.4531 0.8818
usemtl F.006
s 1
f 165//161 166//162 167//163 168//164
f 165//161 169//165 170//166 166//162
f 165//161 171//167 172//168 169//165
f 173//169 166//162 170//166 174//170
f 173//169 175//171 167//163 166//162
f 176//172 177//173 178//174 168//164
f 179//175 170//166 169//165
f 169//165 172//168 180//176 179//175
f 168//164 167//163 176//172
f 168//164 178//174 171//167 165//161
o cube1_I.006
v -0.027680 -5.550035 0.315755
v 0.823978 -5.524732 0.315332
v 0.853152 -4.725035 0.790330
v -0.027680 -4.737687 0.819509
v -0.027680 -5.659917 0.018326
v 0.823978 -5.634615 0.018326
v -0.027680 -5.408071 -0.363479
v -0.879339 -5.382769 -0.363056
v -0.908512 -4.768309 -0.501695
v -0.027680 -4.780961 -0.505561
v -0.879339 -5.634615 0.018326
v 2.590169 -5.170955 0.016076
v 1.656204 -5.630842 0.018326
v 1.619862 -5.378995 -0.384888
v 2.420420 -4.916672 -0.320232
v 2.420599 -5.188466 0.364396
v 1.619862 -5.520959 0.337163
v 1.626187 -4.723149 0.770314
v -0.879339 -5.524732 0.315332
v -1.675222 -5.280360 0.337163
v -1.711564 -5.390243 0.018326
v -0.908512 -4.725035 0.790330
v -1.681548 -4.717105 0.720329
v 0.823978 -5.382769 -0.363056
v 0.853152 -4.768309 -0.501695
v 1.626187 -4.766423 -0.532304
v -1.675222 -5.138396 -0.384888
v -1.939109 -5.063815 0.351098
v -2.114212 -5.131750 0.018326
v -1.681548 -4.731815 -0.532304
v -1.986749 -4.983486 -0.334468
vn -0.0000 -0.7716 0.6361
vn 0.0145 -0.7687 0.6395
vn 0.0311 -0.5082 0.8607
vn 0.0000 -0.5244 0.8515
vn 0.0000 -0.9934 -0.1144
vn 0.0139 -0.9933 -0.1144
vn -0.0000 -0.5687 -0.8226
vn -0.0768 -0.5759 -0.8139
vn 0.0026 -0.2367 -0.9716
vn -0.0000 -0.2207 -0.9753
vn -0.1565 -0.9813 -0.1122
vn 0.8542 -0.5022 -0.1344
vn 0.2258 -0.9615 -0.1568
vn 0.1542 -0.5414 -0.8265
vn 0.5343 -0.2721 -0.8003
vn 0.5472 -0.4426 0.7105
vn 0.1544 -0.7601 0.6312
vn 0.1307 -0.4531 0.8818
vn -0.1145 -0.7672 0.6311
vn -0.3417 -0.7147 0.6103
vn -0.4210 -0.9030 -0.0862
vn -0.0667 -0.5243 0.8489
vn -0.2855 -0.5148 0.8084
vn -0.0007 -0.5724 -0.8200
vn -0.0159 -0.2241 -0.9744
vn 0.0773 -0.2349 -0.9689
vn -0.2738 -0.5754 -0.7706
vn -0.5036 -0.6141 0.6077
vn -0.6026 -0.7979 -0.0160
vn -0.1581 -0.3023 -0.9400
vn -0.4249 -0.5625 -0.7093
usemtl I.006
s 1
f 181//177 182//178 183//179 184//180
f 181//177 185//181 186//182 182//178
f 187//183 188//184 189//185 190//186
f 187//183 185//181 191//187 188//184
f 192//188 193//189 194//190 195//191
f 196//192 197//193 193//189 192//188
f 196//192 198//194 197//193
f 199//195 191//187 185//181 181//177
f 199//195 200//196 201//197 191//187
f 199//195 202//198 203//199 200//196
f 204//200 186//182 185//181 187//183
f 204//200 194//190 193//189 186//182
f 204//200 205//201 206//202 194//190
f 186//182 193//189 197//193 182//178
f 191//187 201//197 207//203 188//184
f 201//197 200//196 208//204 209//205
f 194//190 206//202 195//191
f 197//193 198//194 183//179 182//178
f 207//203 210//206 189//185 188//184
f 203//199 208//204 200//196
f 184//180 202//198 199//195 181//177
f 190//186 205//201 204//200 187//183
f 211//207 210//206 207//203
f 209//205 211//207 207//203 201//197
o cube1_L.022
v -0.027680 -4.153850 -0.647642
v -0.027680 -4.780961 -0.505561
v -0.908512 -4.768309 -0.501695
v -0.937686 -4.153850 -0.640335
v -0.027680 -1.756401 -1.403286
v 0.376808 -2.177720 -1.618371
v -0.027680 -2.025513 -1.038420
v -0.027680 -1.709518 -1.973377
v -0.027680 -3.003123 -0.807062
v 0.889273 -3.003123 -0.775368
v 0.882325 -4.153850 -0.640335
v 0.957778 -2.590421 -1.154457
v -1.601544 -4.153850 -0.679721
v -0.944633 -3.003123 -0.775368
v 1.546183 -4.153850 -0.679721
v 1.626187 -4.766423 -0.532304
v 0.853152 -4.768309 -0.501695
v -1.681548 -4.731815 -0.532304
v 0.913852 -2.177720 -1.533547
v 1.307842 -3.003123 -1.033021
v -1.363202 -3.003123 -1.033021
v -1.013138 -2.590421 -1.154457
v -0.432169 -2.177720 -1.618371
v -0.969213 -2.177720 -1.533547
vn -0.0000 -0.1740 -0.9847
vn -0.0000 -0.2207 -0.9753
vn 0.0026 -0.2367 -0.9716
vn 0.0178 -0.1749 -0.9844
vn 0.0000 -0.9381 -0.3463
vn -0.4802 -0.7053 -0.5215
vn -0.0000 -0.7337 -0.6795
vn 0.0000 -0.6942 -0.7198
vn 0.0000 -0.2631 -0.9648
vn -0.2331 -0.3241 -0.9168
vn -0.0193 -0.1734 -0.9847
vn -0.3731 -0.6389 -0.6727
vn 0.0542 -0.2660 -0.9624
vn 0.2331 -0.3241 -0.9168
vn -0.0638 -0.2528 -0.9654
vn 0.0772 -0.2349 -0.9689
vn -0.0160 -0.2241 -0.9744
vn -0.1581 -0.3023 -0.9400
vn -0.0182 -0.5388 -0.8423
vn -0.2446 -0.4712 -0.8474
vn 0.2446 -0.4712 -0.8474
vn 0.3731 -0.6389 -0.6727
vn 0.4802 -0.7053 -0.5215
vn 0.0182 -0.5388 -0.8423
usemtl L.023
s 1
f 212//208 213//209 214//210 215//211
f 216//212 217//213 218//214
f 216//212 219//215 217//213
f 220//216 221//217 222//218 212//208
f 220//216 218//214 223//219 221//217
f 224//220 225//221 215//211
f 226//222 227//223 228//224 222//218
f 222//218 221//217 226//222
f 222//218 228//224 213//209 212//208
f 215//211 225//221 220//216 212//208
f 215//211 214//210 229//225 224//220
f 230//226 231//227 223//219
f 230//226 223//219 218//214 217//213
f 221//217 223//219 231//227
f 225//221 224//220 232//228
f 225//221 233//229 218//214 220//216
f 232//228 233//229 225//221
f 231//227 226//222 221//217
f 218//214 234//230 216//212
f 233//229 232//228 235//231
f 234//230 218//214 233//229 235//231
f 234//230 219//215 216//212
o cube1_M.022
v 2.538993 -4.153850 0.018326
v 2.393279 -4.153850 0.675505
v 2.420599 -5.188466 0.364396
v 2.590169 -5.170955 0.016076
v 2.427828 -3.003123 0.018326
v 2.299759 -3.003123 0.679195
v 2.420420 -4.916672 -0.320232
v 2.393279 -4.153850 -0.411038
v 1.721141 -2.177720 1.373088
v 0.946991 -2.177720 1.809671
v 1.220811 -3.003123 1.626546
v 2.069273 -3.003123 1.183887
v 1.579692 -2.177720 -1.336436
v 2.031610 -2.177720 -0.604649
v 2.299759 -3.003123 -0.642543
v 1.980996 -3.003123 -0.970046
v 2.121715 -2.177720 0.018326
v 2.031610 -2.177720 0.641301
v 2.246003 -4.153850 0.780315
v 2.212873 -4.153850 -0.583349
v 1.307842 -3.003123 -1.033021
v 0.913852 -2.177720 -1.533547
v 1.546183 -4.153850 -0.679721
v 1.486416 -4.153850 1.073716
v 1.626187 -4.723149 0.770314
v 1.626187 -4.766423 -0.532304
vn 0.9987 0.0416 -0.0301
vn 0.8775 -0.0367 0.4781
vn 0.5471 -0.4426 0.7105
vn 0.8543 -0.5022 -0.1344
vn 0.9784 0.2065 -0.0104
vn 0.9281 0.1821 0.3247
vn 0.5343 -0.2721 -0.8003
vn 0.8493 -0.0173 -0.5276
vn 0.7391 0.1378 0.6594
vn 0.3334 -0.1352 0.9330
vn 0.2319 -0.2822 0.9309
vn 0.6991 -0.0015 0.7150
vn 0.6100 -0.0713 -0.7892
vn 0.9088 0.2282 -0.3492
vn 0.8883 0.1324 -0.4397
vn 0.4889 -0.1524 -0.8589
vn 0.9618 0.2739 0.0000
vn 0.9222 0.2682 0.2786
vn 0.5514 -0.2202 0.8047
vn 0.4437 -0.1797 -0.8780
vn -0.2446 -0.4712 -0.8474
vn -0.0182 -0.5388 -0.8423
vn -0.0638 -0.2528 -0.9654
vn 0.2136 -0.3877 0.8967
vn 0.1308 -0.4531 0.8818
vn 0.0772 -0.2349 -0.9689
usemtl M.023
s 1
f 236//232 237//233 238//234 239//235
f 236//232 240//236 241//237 237//233
f 236//232 239//235 242//238 243//239
f 244//240 245//241 246//242 247//243
f 248//244 249//245 250//246 251//247
f 252//248 253//249 241//237 240//236
f 237//233 254//250 238//234
f 243//239 250//246 240//236 236//232
f 243//239 255//251 251//247 250//246
f 247//243 241//237 253//249 244//240
f 251//247 256//252 257//253 248//244
f 240//236 250//246 249//245 252//248
f 241//237 247//243 254//250 237//233
f 258//254 256//252 251//247 255//251
f 259//255 260//256 238//234 254//250
f 242//238 255//251 243//239
f 246//242 259//255 254//250 247//243
f 255//251 242//238 261//257 258//254
o cube1_V.022
v -0.027680 -0.065080 1.859422
v -0.027680 -1.241316 2.022138
v 0.834265 -1.241316 1.905406
v 0.696574 -0.082868 1.708513
v -0.751935 -0.082868 1.708513
v -1.436431 -1.173761 1.500437
v -0.889626 -1.241316 1.905406
v -0.027680 -1.845197 2.065247
v 0.890628 -1.845197 1.922057
v 1.381070 -1.173761 1.500437
v -0.945989 -1.845197 1.922057
vn -0.0000 0.1619 0.9868
vn -0.0000 0.1087 0.9941
vn 0.3767 0.1274 0.9175
vn 0.4750 0.2183 0.8525
vn -0.4665 0.2115 0.8589
vn -0.7065 0.1690 0.6872
vn -0.3767 0.1274 0.9175
vn 0.0000 -0.1099 0.9939
vn 0.3744 -0.0315 0.9267
vn 0.7095 0.1733 0.6831
vn -0.3744 -0.0315 0.9267
usemtl V.023
s 1
f 262//258 263//259 264//260 265//261
f 266//262 267//263 268//264
f 266//262 268//264 263//259 262//258
f 263//259 269//265 270//266 264//260
f 264//260 271//267 265//261
f 264//260 270//266 271//267
f 268//264 267//263 272//268
f 272//268 269//265 263//259 268//264
o cube1_default.020
v 1.018955 -0.202857 -0.010341
v 0.004937 0.007639 -0.010367
v -1.009082 -0.209936 -0.010393
v -0.707835 2.474246 0.010349
v 0.697962 2.479153 0.010385
vn -0.0000 0.0081 -1.0000
usemtl default.021
s 1
f 273//269 274//269 275//269 276//269 277//269
