# Blender v3.0.1 OBJ File: ''
# www.blender.org
mtllib toothE.mtl
o cube1_Buildup.023
v 1.024252 0.090968 0.082556
v 0.840729 2.581520 0.083018
v -0.844298 2.578663 0.082601
v -1.020683 0.087502 0.082051
vn -0.0002 -0.0002 1.0000
usemtl Buildup.024
s 1
f 1//1 2//1 3//1 4//1
o cube1_Cementum.023
v 0.404570 9.546281 0.371225
v 0.017126 9.932769 0.010703
v 0.017126 9.546281 0.472911
v 0.210848 9.546281 0.422068
v 0.443049 7.776064 0.962199
v 0.784384 7.776064 0.781836
v -0.370318 9.546281 0.371225
v -0.479597 9.546281 0.010703
v -0.424957 9.546281 0.190964
v -0.750132 7.776064 0.781836
v -0.408797 7.776064 0.962199
v -0.176596 9.546281 0.422068
v 0.404570 9.546281 -0.349818
v 0.459210 9.546281 -0.169557
v 0.961626 7.776064 -0.411584
v 0.804019 7.776064 -0.752269
v -0.370318 9.546281 -0.349818
v -0.769766 7.776064 -0.752269
v -0.927374 7.776064 -0.411584
v -0.424957 9.546281 -0.169557
v 1.544484 -0.449811 1.395737
v 1.457856 2.139612 1.320126
v 0.844562 2.447140 1.702243
v 0.912179 0.006038 1.826983
v 0.017126 7.776064 1.069120
v 0.513850 9.546281 0.010703
v 0.459210 9.546281 0.190964
v 0.961626 7.776064 0.432991
v 1.054280 7.776064 0.010703
v -1.545289 -0.449811 1.395737
v -0.913808 0.006038 1.826983
v -0.810145 2.447140 1.702243
v -1.423439 2.139612 1.320126
v -1.020027 7.776064 0.010703
v -0.927374 7.776064 0.432991
v 1.689914 -0.449811 -1.374331
v 1.532384 2.139612 -1.291294
v 1.922704 1.334922 -0.708502
v 2.167983 -0.840244 -0.745573
v 0.017126 9.546281 -0.451504
v 0.210848 9.546281 -0.400661
v 0.443049 7.776064 -0.940793
v 0.017126 7.776064 -1.047713
v -0.408797 7.776064 -0.940793
v -0.176596 9.546281 -0.400661
v -1.691544 -0.449811 -1.374331
v -2.096979 -0.727999 -0.843356
v -1.888286 1.677393 -0.708502
v -1.497967 2.139612 -1.291294
v -0.000815 0.025030 1.989151
v 0.017209 2.459952 1.866382
v -2.162751 -1.004589 0.010703
v -2.096979 -0.727999 0.864762
v -1.888286 1.677393 0.730153
v -1.987657 1.490798 0.010825
v -0.000815 0.025030 -1.967745
v 0.017209 2.459952 -1.844731
v 0.844562 2.447140 -1.680592
v 0.912179 0.006038 -1.805577
v 2.338717 -1.226493 0.010703
v 2.064663 1.100030 0.010825
v 1.922704 1.242719 0.730153
v 2.186201 -1.014986 0.864762
v 0.984969 5.916513 1.050882
v 0.574640 5.916513 1.323580
v 1.019134 5.916513 -1.014624
v 1.241588 5.916513 -0.573649
v -0.950717 5.916513 1.050882
v -0.540387 5.916513 1.323580
v -0.984881 5.916513 -1.014624
v -1.207335 5.916513 -0.573649
v 0.017126 5.916513 -1.445123
v 0.574640 5.916513 -1.301684
v 1.351023 5.916513 0.010948
v 1.241588 5.916513 0.595545
v 0.017126 5.916513 1.467019
v -1.316770 5.916513 0.010948
v -1.207335 5.916513 0.595545
v -0.913808 0.006038 -1.805577
v -0.810145 2.447140 -1.680592
v -0.540387 5.916513 -1.301684
vn 0.5635 0.5906 0.5776
vn -0.0000 1.0000 -0.0000
vn -0.0000 0.5663 0.8242
vn 0.2691 0.4726 0.8392
vn 0.3433 0.2526 0.9046
vn 0.6928 0.2488 0.6768
vn -0.5635 0.5906 0.5776
vn -0.8213 0.5705 0.0000
vn -0.8379 0.4709 0.2762
vn -0.6929 0.2487 0.6768
vn -0.3433 0.2526 0.9046
vn -0.2691 0.4726 0.8392
vn 0.5671 0.5924 -0.5723
vn 0.8401 0.4713 -0.2687
vn 0.9244 0.2283 -0.3056
vn 0.7023 0.2511 -0.6661
vn -0.5671 0.5924 -0.5723
vn -0.7023 0.2511 -0.6661
vn -0.9244 0.2283 -0.3057
vn -0.8403 0.4712 -0.2679
vn 0.6702 0.0671 0.7391
vn 0.7031 0.1032 0.7036
vn 0.3907 0.0893 0.9162
vn 0.3845 0.0520 0.9216
vn -0.0000 0.2647 0.9643
vn 0.8213 0.5705 -0.0000
vn 0.8383 0.4709 0.2750
vn 0.9191 0.2280 0.3214
vn 0.9733 0.2297 -0.0000
vn -0.6730 0.0685 0.7365
vn -0.3864 0.0576 0.9205
vn -0.3916 0.0920 0.9155
vn -0.6962 0.1051 0.7101
vn -0.9732 0.2298 -0.0000
vn -0.9191 0.2280 0.3215
vn 0.6991 0.0737 -0.7112
vn 0.7224 0.1101 -0.6827
vn 0.9388 0.1256 -0.3208
vn 0.9318 0.1016 -0.3483
vn 0.0000 0.5663 -0.8242
vn 0.2689 0.4726 -0.8392
vn 0.3412 0.2525 -0.9054
vn 0.0000 0.2645 -0.9644
vn -0.3412 0.2525 -0.9054
vn -0.2689 0.4726 -0.8392
vn -0.6938 0.0804 -0.7157
vn -0.9437 0.0881 -0.3189
vn -0.9431 0.1227 -0.3092
vn -0.7126 0.1145 -0.6922
vn -0.0001 0.0540 0.9985
vn -0.0000 0.0870 0.9962
vn -0.9968 0.0803 -0.0000
vn -0.9218 0.0826 0.3787
vn -0.9270 0.1191 0.3557
vn -0.9930 0.1182 0.0000
vn -0.0002 0.0541 -0.9985
vn 0.0001 0.0871 -0.9962
vn 0.3675 0.0917 -0.9255
vn 0.3532 0.0559 -0.9339
vn 0.9930 0.1185 -0.0016
vn 0.9910 0.1335 0.0018
vn 0.9197 0.1256 0.3720
vn 0.9037 0.1050 0.4151
vn 0.7232 0.1615 0.6715
vn 0.3874 0.1619 0.9076
vn 0.7335 0.1660 -0.6591
vn 0.9396 0.1567 -0.3042
vn -0.7151 0.1627 0.6799
vn -0.3874 0.1619 0.9076
vn -0.7265 0.1669 -0.6666
vn -0.9380 0.1604 -0.3072
vn 0.0000 0.1643 -0.9864
vn 0.3779 0.1624 -0.9115
vn 0.9879 0.1549 0.0027
vn 0.9305 0.1548 0.3319
vn 0.0000 0.1643 0.9864
vn -0.9873 0.1589 0.0000
vn -0.9291 0.1593 0.3337
vn -0.3547 0.0611 -0.9330
vn -0.3682 0.0942 -0.9250
vn -0.3779 0.1624 -0.9115
usemtl Cementum.024
s 1
f 5//2 6//3 7//4 8//5
f 5//2 8//5 9//6 10//7
f 11//8 6//3 12//9 13//10
f 11//8 14//11 15//12 16//13
f 17//14 18//15 19//16 20//17
f 21//18 22//19 23//20 24//21
f 25//22 26//23 27//24 28//25
f 7//4 6//3 11//8 16//13
f 7//4 29//26 9//6 8//5
f 30//27 31//28 32//29 33//30
f 30//27 33//30 19//16 18//15
f 34//31 35//32 36//33 37//34
f 12//9 6//3 21//18 24//21
f 12//9 38//35 39//36 13//10
f 40//37 41//38 42//39 43//40
f 44//41 45//42 46//43 47//44
f 44//41 47//44 48//45 49//46
f 50//47 51//48 52//49 53//50
f 54//51 28//25 27//24 55//52
f 56//53 57//54 58//55 59//56
f 60//57 61//58 62//59 63//60
f 64//61 65//62 66//63 67//64
f 68//65 69//66 27//24 26//23
f 68//65 10//7 9//6 69//66
f 70//67 71//68 42//39 41//38
f 70//67 20//17 19//16 71//68
f 72//69 73//70 15//12 14//11
f 72//69 37//34 36//33 73//70
f 74//71 75//72 23//20 22//19
f 74//71 53//50 52//49 75//72
f 76//73 77//74 62//59 61//58
f 76//73 47//44 46//43 77//74
f 78//75 79//76 66//63 65//62
f 78//75 33//30 32//29 79//76
f 80//77 69//66 9//6 29//26
f 80//77 55//52 27//24 69//66
f 81//78 82//79 39//36 38//35
f 81//78 59//56 58//55 82//79
f 67//64 66//63 26//23 25//22
f 43//40 42//39 65//62 64//61
f 31//28 30//27 6//3 5//2
f 13//10 39//36 14//11 11//8
f 45//42 44//41 6//3 17//14
f 16//13 15//12 29//26 7//4
f 18//15 17//14 6//3 30//27
f 24//21 23//20 38//35 12//9
f 49//46 21//18 6//3 44//41
f 49//46 48//45 22//19 21//18
f 63//60 62//59 41//38 40//37
f 83//80 84//81 61//58 60//57
f 77//74 46//43 20//17 70//67
f 79//76 32//29 10//7 68//65
f 73//70 36//33 55//52 80//77
f 75//72 52//49 59//56 81//78
f 71//68 19//16 33//30 78//75
f 85//82 48//45 47//44 76//73
f 85//82 84//81 53//50 74//71
f 82//79 58//55 37//34 72//69
f 10//7 32//29 31//28 5//2
f 20//17 46//43 45//42 17//14
f 14//11 39//36 82//79 72//69
f 22//19 48//45 85//82 74//71
f 29//26 15//12 73//70 80//77
f 38//35 23//20 75//72 81//78
f 65//62 42//39 71//68 78//75
f 61//58 84//81 85//82 76//73
f 41//38 62//59 77//74 70//67
f 26//23 66//63 79//76 68//65
f 59//56 52//49 51//48 56//53
f 55//52 36//33 35//32 54//51
f 53//50 84//81 83//80 50//47
f 37//34 58//55 57//54 34//31
o cube1_D.023
v -3.246378 -4.405704 0.010703
v -3.061104 -4.405704 0.658325
v -2.853541 -3.111969 0.785327
v -3.011495 -3.111969 0.010703
v -2.853541 -3.111969 -0.812884
v -3.061104 -4.405704 -0.524379
v -3.068814 -5.658278 0.010703
v -2.767014 -5.587081 0.557655
v -2.222565 -2.015541 1.699031
v -2.569271 -3.111969 1.463246
v -1.340741 -3.111969 1.929201
v -1.231149 -2.015541 2.154975
v -2.491787 -2.055512 0.787065
v -2.607180 -2.188691 0.010703
v -2.491787 -2.055512 -0.765660
v -2.794813 -4.405704 1.074550
v -3.001857 -5.644701 -0.403330
v -2.831719 -4.405704 -0.739115
v -1.948599 -4.405704 1.449974
v -2.460396 -3.111969 -1.221024
v -2.008483 -2.015541 -1.571542
v -1.903813 -4.405704 -0.859215
v -2.085753 -5.027216 -0.675502
v -0.974546 -2.015541 -2.086474
v -1.458842 -3.111969 -1.299504
v -2.085753 -5.171626 1.075894
vn -0.9996 -0.0013 0.0299
vn -0.9128 -0.0577 0.4044
vn -0.9349 0.2119 0.2848
vn -0.9660 0.2584 -0.0016
vn -0.8859 0.1743 -0.4299
vn -0.8631 -0.0319 -0.5041
vn -0.7348 -0.6782 -0.0038
vn -0.5910 -0.5377 0.6013
vn -0.7363 0.1128 0.6672
vn -0.6424 -0.0361 0.7655
vn -0.2014 -0.2332 0.9513
vn -0.2823 -0.1339 0.9499
vn -0.9308 0.3090 0.1952
vn -0.9407 0.3392 0.0011
vn -0.9053 0.2880 -0.3123
vn -0.6643 -0.1997 0.7203
vn -0.4842 -0.4053 -0.7754
vn -0.4256 -0.1875 -0.8853
vn -0.2421 -0.3300 0.9124
vn -0.5078 -0.1345 -0.8509
vn -0.6492 0.0081 -0.7605
vn 0.0463 -0.3017 -0.9523
vn -0.0343 -0.2715 -0.9618
vn -0.2511 -0.4039 -0.8797
vn -0.1803 -0.3317 -0.9260
vn -0.0998 -0.5654 0.8188
usemtl D.024
s 1
f 86//83 87//84 88//85 89//86
f 86//83 89//86 90//87 91//88
f 86//83 92//89 93//90 87//84
f 94//91 95//92 96//93 97//94
f 94//91 98//95 88//85 95//92
f 99//96 100//97 90//87 89//86
f 87//84 101//98 95//92 88//85
f 91//88 102//99 92//89 86//83
f 91//88 103//100 102//99
f 95//92 101//98 104//101
f 105//102 90//87 100//97 106//103
f 89//86 88//85 98//95 99//96
f 90//87 105//102 103//100 91//88
f 104//101 96//93 95//92
f 107//104 108//105 102//99 103//100
f 93//90 101//98 87//84
f 109//106 110//107 105//102 106//103
f 101//98 93//90 111//108 104//101
f 110//107 107//104 103//100 105//102
o cube1_Enamel2.023
v 1.544484 -0.449811 1.395737
v 2.001143 -1.359119 1.703822
v 2.186201 -1.014986 0.864762
v 1.689914 -0.449811 -1.374331
v 2.167983 -0.840244 -0.745573
v 1.930639 -1.361466 -1.606524
v -1.691544 -0.449811 -1.374331
v -1.736901 -1.225805 -1.691051
v -2.096979 -0.727999 -0.843356
v -2.162751 -1.004589 0.010703
v -2.607180 -2.188691 0.010703
v -2.491787 -2.055512 0.787065
v -2.096979 -0.727999 0.864762
v -0.000815 0.025030 -1.967745
v 0.912179 0.006038 -1.805577
v 0.949443 -0.919124 -2.264422
v -0.000403 -0.883451 -2.486482
v 2.338717 -1.226493 0.010703
v 2.649334 -2.312348 0.010703
v 2.493822 -2.192186 -0.833980
v -2.222565 -2.015541 1.699031
v -1.231149 -2.015541 2.154975
v -1.037695 -0.883451 2.362415
v -1.849072 -1.158728 1.857736
v -2.008483 -2.015541 -1.571542
v -2.491787 -2.055512 -0.765660
v 2.256695 -2.015541 1.699031
v 1.036890 -0.883451 2.362415
v 1.265279 -2.015541 2.154975
v 0.017065 -2.015541 2.366395
v -0.000403 -0.883451 2.507888
v 0.017065 -2.015541 -2.134688
v 1.008676 -2.015541 -2.086474
v 2.493822 -2.192186 0.855385
v -1.545289 -0.449811 1.395737
v -0.913808 0.006038 -1.805577
v -0.952199 -0.883451 -2.264692
v -0.974546 -2.015541 -2.086474
v 2.042613 -2.015541 -1.571542
vn 0.7223 0.5012 0.4765
vn 0.7593 0.3479 0.5499
vn 0.8972 0.3581 0.2584
vn 0.7392 0.3498 -0.5756
vn 0.9061 0.2670 -0.3281
vn 0.7410 0.2186 -0.6350
vn -0.7359 0.3070 -0.6035
vn -0.7255 0.1994 -0.6587
vn -0.8976 0.2701 -0.3484
vn -0.9487 0.3162 0.0000
vn -0.9407 0.3392 0.0011
vn -0.9306 0.3096 0.1951
vn -0.8770 0.4045 0.2593
vn 0.0048 0.4772 -0.8788
vn 0.4159 0.4227 -0.8052
vn 0.3840 0.1447 -0.9119
vn 0.0016 0.1319 -0.9913
vn 0.9657 0.2598 0.0038
vn 0.9408 0.3390 0.0019
vn 0.9061 0.2824 -0.3151
vn -0.7363 0.1128 0.6672
vn -0.2823 -0.1339 0.9499
vn -0.3797 0.2355 0.8946
vn -0.7254 0.3635 0.5845
vn -0.6493 0.0081 -0.7605
vn -0.9053 0.2880 -0.3123
vn 0.7519 0.1380 0.6447
vn 0.3968 0.2413 0.8856
vn 0.2923 -0.1173 0.9491
vn 0.0000 -0.1929 0.9812
vn 0.0000 0.1990 0.9800
vn -0.0010 -0.5878 -0.8090
vn 0.2466 -0.4038 -0.8810
vn 0.9273 0.3145 0.2031
vn -0.6688 0.5520 0.4980
vn -0.4175 0.4267 -0.8023
vn -0.3895 0.1467 -0.9093
vn -0.2511 -0.4039 -0.8797
vn 0.6640 0.0070 -0.7477
usemtl Enamel2.024
s 1
f 112//109 113//110 114//111
f 115//112 116//113 117//114
f 118//115 119//116 120//117
f 121//118 122//119 123//120 124//121
f 125//122 126//123 127//124 128//125
f 129//126 130//127 131//128 116//113
f 132//129 133//130 134//131 135//132
f 136//133 137//134 120//117 119//116
f 138//135 113//110 139//136 140//137
f 141//138 140//137 139//136 142//139
f 143//140 128//125 127//124 144//141
f 114//111 145//142 130//127 129//126
f 114//111 113//110 138//135 145//142
f 124//121 135//132 146//143
f 120//117 137//134 122//119 121//118
f 147//144 148//145 119//116 118//115
f 149//146 148//145 128//125 143//140
f 144//141 127//124 117//114 150//147
f 117//114 116//113 131//128 150//147
f 117//114 127//124 126//123 115//112
f 128//125 148//145 147//144 125//122
f 135//132 124//121 123//120 132//129
f 119//116 148//145 149//146 136//133
f 142//139 134//131 133//130 141//138
o cube1_F.007
v 0.017126 -4.405704 1.599268
v 0.017000 -3.111969 2.021274
v -1.340741 -3.111969 1.929201
v -1.139938 -4.405704 1.527071
v 1.174191 -4.405704 1.527071
v 1.374742 -3.111969 1.929201
v 0.017126 -5.187148 1.137202
v 1.137097 -5.173640 0.880511
v 0.017065 -2.015541 2.366395
v 1.265279 -2.015541 2.154975
v -1.231149 -2.015541 2.154975
v -1.948599 -4.405704 1.449974
v -2.085753 -5.171626 1.075894
v -1.102844 -5.173640 0.880511
v 1.982852 -4.405704 1.449974
v 2.120006 -5.171626 1.075894
vn -0.0000 -0.4509 0.8926
vn 0.0000 -0.2775 0.9607
vn -0.2014 -0.2332 0.9513
vn -0.0552 -0.4434 0.8946
vn 0.0552 -0.4434 0.8946
vn 0.2014 -0.2332 0.9513
vn 0.0000 -0.6224 0.7827
vn 0.0192 -0.6091 0.7928
vn 0.0000 -0.1929 0.9812
vn 0.2923 -0.1173 0.9491
vn -0.2823 -0.1339 0.9499
vn -0.2421 -0.3300 0.9124
vn -0.0998 -0.5654 0.8188
vn -0.0192 -0.6091 0.7928
vn 0.2581 -0.3217 0.9110
vn 0.1243 -0.4990 0.8576
usemtl F.007
s 1
f 151//148 152//149 153//150 154//151
f 151//148 155//152 156//153 152//149
f 151//148 157//154 158//155 155//152
f 159//156 152//149 156//153 160//157
f 159//156 161//158 153//150 152//149
f 162//159 163//160 164//161 154//151
f 165//162 156//153 155//152
f 155//152 158//155 166//163 165//162
f 154//151 153//150 162//159
f 154//151 164//161 157//154 151//148
o cube1_I.007
v 0.017126 -5.968593 0.381365
v 1.100003 -5.941577 0.282913
v 1.137097 -5.173640 0.880511
v 0.017126 -5.187148 1.137202
v 0.017126 -5.948675 0.010703
v 1.100003 -5.921659 0.010703
v 0.017126 -5.679774 -0.465110
v -1.065751 -5.652758 -0.464582
v -1.102844 -5.029231 -0.637357
v 0.017126 -5.042738 -0.642174
v -1.065751 -5.921659 0.010703
v 3.337910 -5.913602 0.010703
v 2.158171 -5.917630 0.010703
v 2.111963 -5.648729 -0.491789
v 3.123922 -5.644701 -0.403330
v -3.068814 -5.658278 0.010703
v -2.123919 -5.917630 0.010703
v -2.077710 -5.937549 0.408044
v -2.767014 -5.587081 0.557655
v 3.123922 -5.933520 0.435251
v 2.111963 -5.937549 0.408044
v 2.120006 -5.171626 1.075894
v -3.001857 -5.644701 -0.403330
v -2.077710 -5.648729 -0.491789
v -2.085753 -5.027216 -0.675502
v -1.065751 -5.941577 0.282913
v -1.102844 -5.173640 0.880511
v -2.085753 -5.171626 1.075894
v 1.100003 -5.652758 -0.464582
v 1.137097 -5.029231 -0.637357
v 2.120006 -5.027216 -0.675502
vn -0.0000 -0.9241 0.3822
vn 0.0113 -0.9205 0.3906
vn 0.0193 -0.6091 0.7928
vn -0.0000 -0.6224 0.7827
vn -0.0000 -0.9588 -0.2841
vn 0.0124 -0.9597 -0.2808
vn -0.0000 -0.6158 -0.7879
vn 0.0013 -0.6196 -0.7849
vn 0.0159 -0.2724 -0.9620
vn -0.0000 -0.2676 -0.9635
vn -0.0124 -0.9597 -0.2808
vn 0.6917 -0.6857 -0.2267
vn 0.0087 -0.9592 -0.2826
vn 0.0202 -0.6189 -0.7852
vn 0.5454 -0.2791 -0.7903
vn -0.7348 -0.6783 -0.0038
vn -0.1257 -0.9762 -0.1765
vn -0.1067 -0.8870 0.4492
vn -0.5910 -0.5378 0.6013
vn 0.5542 -0.5132 0.6553
vn -0.0356 -0.9178 0.3955
vn 0.1243 -0.4990 0.8576
vn -0.4842 -0.4052 -0.7755
vn -0.0572 -0.6585 -0.7504
vn -0.0343 -0.2715 -0.9618
vn -0.0113 -0.9205 0.3906
vn -0.0193 -0.6091 0.7928
vn -0.0998 -0.5654 0.8188
vn -0.0013 -0.6196 -0.7849
vn -0.0159 -0.2724 -0.9620
vn 0.0313 -0.2704 -0.9622
usemtl I.007
s 1
f 167//164 168//165 169//166 170//167
f 167//164 171//168 172//169 168//165
f 173//170 174//171 175//172 176//173
f 173//170 171//168 177//174 174//171
f 178//175 179//176 180//177 181//178
f 182//179 183//180 184//181 185//182
f 186//183 187//184 179//176 178//175
f 186//183 188//185 187//184
f 189//186 190//187 183//180 182//179
f 189//186 191//188 190//187
f 192//189 177//174 171//168 167//164
f 192//189 184//181 183//180 177//174
f 192//189 193//190 194//191 184//181
f 195//192 172//169 171//168 173//170
f 195//192 180//177 179//176 172//169
f 195//192 196//193 197//194 180//177
f 172//169 179//176 187//184 168//165
f 177//174 183//180 190//187 174//171
f 180//177 197//194 181//178
f 187//184 188//185 169//166 168//165
f 190//187 191//188 175//172 174//171
f 184//181 194//191 185//182
f 170//167 193//190 192//189 167//164
f 176//173 196//193 195//192 173//170
o cube1_L.023
v 0.017126 -4.405704 -0.819238
v 0.017126 -5.042738 -0.642174
v -1.102844 -5.029231 -0.637357
v -1.139938 -4.405704 -0.810132
v 0.017065 -2.015541 -2.134688
v 1.008676 -2.015541 -2.086474
v 0.017065 -2.361998 -1.565784
v 0.017065 -2.578290 -1.172955
v -0.974546 -2.015541 -2.086474
v 1.075543 -3.111969 -1.133458
v 1.174191 -4.405704 -0.810132
v -1.903813 -4.405704 -0.859215
v -1.041542 -3.111969 -1.133458
v 1.938066 -4.405704 -0.859215
v 2.120006 -5.027216 -0.675502
v 1.137097 -5.029231 -0.637357
v -2.085753 -5.027216 -0.675502
v 1.492842 -3.111969 -1.299504
v -1.458842 -3.111969 -1.299504
vn -0.0000 -0.2403 -0.9707
vn -0.0000 -0.2676 -0.9635
vn 0.0158 -0.2724 -0.9620
vn 0.0330 -0.2519 -0.9672
vn -0.0010 -0.5878 -0.8090
vn 0.2465 -0.4038 -0.8810
vn 0.0000 -0.8541 -0.5201
vn -0.0000 -0.6221 -0.7829
vn 0.1801 -0.7357 -0.6530
vn 0.0000 -0.8760 -0.4823
vn -0.1800 -0.7357 -0.6530
vn -0.2085 -0.4424 -0.8722
vn -0.0330 -0.2519 -0.9672
vn 0.0463 -0.3017 -0.9523
vn 0.2086 -0.4424 -0.8722
vn -0.0471 -0.3008 -0.9525
vn 0.0313 -0.2704 -0.9622
vn -0.0159 -0.2724 -0.9620
vn -0.0343 -0.2715 -0.9618
vn -0.3142 -0.5270 -0.7896
vn 0.3142 -0.5270 -0.7896
vn 0.1800 -0.7357 -0.6529
vn -0.2511 -0.4039 -0.8797
usemtl L.024
s 1
f 198//195 199//196 200//197 201//198
f 202//199 203//200 204//201
f 205//202 206//203 204//204
f 205//202 203//205 207//206
f 205//202 207//206 208//207 198//195
f 209//208 210//209 201//198
f 211//210 212//211 213//212 208//207
f 208//207 207//206 211//210
f 208//207 213//212 199//196 198//195
f 201//198 210//209 205//202 198//195
f 201//198 200//197 214//213 209//208
f 207//206 203//205 215//214
f 210//209 209//208 216//215
f 210//209 206//203 205//202
f 210//209 216//215 206//216
f 215//214 211//210 207//206
f 204//201 206//217 202//199
f 204//204 203//205 205//202
o cube1_M.023
v 3.280631 -4.405704 0.010703
v 3.095357 -4.405704 0.658325
v 3.109639 -5.169612 0.546788
v 3.309270 -5.159653 0.010703
v 3.045495 -3.111969 0.010703
v 2.887541 -3.111969 0.834289
v 3.123922 -5.644701 -0.403330
v 3.095357 -4.405704 -0.524379
v 2.256695 -2.015541 1.699031
v 1.265279 -2.015541 2.154975
v 1.374742 -3.111969 1.929201
v 2.603271 -3.111969 1.463246
v 2.042613 -2.015541 -1.571542
v 2.493822 -2.192186 -0.833980
v 2.887541 -3.111969 -0.812884
v 2.494396 -3.111969 -1.221024
v 2.649334 -2.312348 0.010703
v 2.493822 -2.192186 0.855385
v 2.908097 -4.405704 0.960306
v 3.016010 -5.169612 0.697779
v 2.865971 -4.405704 -0.739115
v 1.982852 -4.405704 1.449974
v 1.492842 -3.111969 -1.299504
v 1.008676 -2.015541 -2.086474
v 3.337910 -5.913602 0.010703
v 3.123922 -5.933520 0.435251
v 1.938066 -4.405704 -0.859215
v 2.120006 -5.171626 1.075894
v 2.120006 -5.027216 -0.675502
vn 0.9968 0.0774 -0.0195
vn 0.9234 0.0381 0.3820
vn 0.8967 -0.0304 0.4417
vn 0.9996 0.0107 -0.0277
vn 0.9583 0.2858 -0.0046
vn 0.9312 0.2331 0.2800
vn 0.5454 -0.2791 -0.7903
vn 0.8487 0.0089 -0.5287
vn 0.7519 0.1380 0.6447
vn 0.2923 -0.1173 0.9491
vn 0.2014 -0.2332 0.9513
vn 0.6556 -0.0356 0.7543
vn 0.6640 0.0070 -0.7477
vn 0.9061 0.2824 -0.3151
vn 0.8822 0.1914 -0.4301
vn 0.5106 -0.1312 -0.8497
vn 0.9408 0.3390 0.0019
vn 0.9273 0.3146 0.2031
vn 0.6877 -0.1381 0.7127
vn 0.6526 -0.1755 0.7371
vn 0.4260 -0.1739 -0.8879
vn 0.2580 -0.3217 0.9110
vn 0.1803 -0.3317 -0.9260
vn 0.2466 -0.4038 -0.8810
vn 0.6917 -0.6857 -0.2267
vn 0.5541 -0.5133 0.6554
vn -0.0471 -0.3008 -0.9525
vn 0.1243 -0.4990 0.8576
vn 0.0313 -0.2704 -0.9622
usemtl M.024
s 1
f 217//218 218//219 219//220 220//221
f 217//218 221//222 222//223 218//219
f 217//218 220//221 223//224 224//225
f 225//226 226//227 227//228 228//229
f 229//230 230//231 231//232 232//233
f 233//234 234//235 222//223 221//222
f 218//219 235//236 236//237 219//220
f 224//225 231//232 221//222 217//218
f 224//225 237//238 232//233 231//232
f 228//229 222//223 234//235 225//226
f 228//229 227//228 238//239
f 232//233 239//240 240//241 229//230
f 221//222 231//232 230//231 233//234
f 222//223 228//229 235//236 218//219
f 241//242 220//221 219//220 242//243
f 243//244 239//240 232//233 237//238
f 238//239 235//236 228//229
f 238//239 244//245 236//237 235//236
f 242//243 219//220 236//237
f 223//224 237//238 224//225
f 223//224 220//221 241//242
f 237//238 223//224 245//246 243//244
f 236//237 244//245 242//243
o cube1_V.023
v -1.545289 -0.449811 1.395737
v -1.849072 -1.158728 1.857736
v -1.037695 -0.883451 2.362415
v -0.913808 0.006038 1.826983
v -0.000815 0.025030 1.989151
v -0.000403 -0.883451 2.507888
v 1.036890 -0.883451 2.362415
v 0.912179 0.006038 1.826983
v 2.001143 -1.359119 1.703822
v 1.544484 -0.449811 1.395737
vn -0.6688 0.5520 0.4980
vn -0.7254 0.3635 0.5845
vn -0.3797 0.2355 0.8946
vn -0.4033 0.5385 0.7399
vn -0.0000 0.5130 0.8584
vn 0.0000 0.1990 0.9800
vn 0.3968 0.2413 0.8856
vn 0.4231 0.5189 0.7428
vn 0.7593 0.3480 0.5499
vn 0.7223 0.5012 0.4765
usemtl V.024
s 1
f 246//247 247//248 248//249 249//250
f 250//251 251//252 252//253 253//254
f 253//254 252//253 254//255 255//256
f 249//250 248//249 251//252 250//251
o cube1_default.021
v -1.020683 0.087502 0.082051
v -0.844298 2.578663 0.082601
v 0.840729 2.581520 0.083018
v 1.024252 0.090968 0.082556
vn 0.0002 0.0002 -1.0000
usemtl default.022
s 1
f 256//257 257//257 258//257 259//257
