# Blender v3.0.1 OBJ File: ''
# www.blender.org
mtllib toothP.mtl
o cube1_Buildup.024
v 0.592367 -2.135350 -0.021904
v 0.677235 0.098857 -0.016334
v 0.002532 -0.013450 -0.016325
v -0.672171 0.103567 -0.016316
v -0.597432 -2.131197 -0.021888
vn 0.0000 -0.0026 1.0000
usemtl Buildup.025
s 1
f 1//1 2//1 3//1 4//1 5//1
o cube1_Cementum.024
v -0.640240 -9.272935 0.370685
v -0.425147 -9.588616 -0.014748
v -0.303227 -9.272954 0.479396
v -0.471733 -9.272944 0.425040
v -0.467663 -7.295784 0.916009
v -0.812738 -7.295761 0.811419
v 0.033787 -9.272972 0.370685
v 0.128842 -9.272978 -0.014748
v 0.081314 -9.272975 0.177969
v 0.567560 -7.295854 0.811419
v 0.222486 -7.295830 0.916009
v -0.134720 -9.272964 0.425040
v -0.640240 -9.272935 -0.400180
v -0.687768 -9.272932 -0.207464
v -0.888710 -7.295756 -0.427831
v -0.812738 -7.295761 -0.840914
v 0.033787 -9.272972 -0.400180
v 0.567560 -7.295854 -0.840914
v 0.643533 -7.295858 -0.427831
v 0.081314 -9.272975 -0.207464
v -1.073177 0.254844 1.215242
v -1.366704 0.464654 0.650677
v -0.978781 -5.103817 0.516851
v -0.893024 -5.103824 1.048450
v -0.122589 -7.295807 1.020600
v -0.735295 -9.272930 -0.014748
v -0.687768 -9.272932 0.177969
v -0.888710 -7.295756 0.398336
v -0.964682 -7.295751 -0.014747
v 1.035679 0.238383 1.215242
v 0.550614 0.009100 1.598213
v 0.417638 -5.103935 1.178885
v 0.854526 -5.103971 1.048450
v 0.719505 -7.295864 -0.014747
v 0.643533 -7.295858 0.398336
v -1.073177 0.254844 -1.244736
v -0.588168 0.009178 -1.627707
v -0.456136 -5.103861 -1.208380
v -0.893024 -5.103824 -1.077945
v -0.303227 -9.272954 -0.508892
v -0.471733 -9.272944 -0.454536
v -0.467663 -7.295784 -0.945504
v -0.122589 -7.295807 -1.050095
v 0.222486 -7.295830 -0.945504
v -0.134720 -9.272964 -0.454536
v 1.035679 0.238383 -1.244736
v 1.329247 0.487844 -0.680171
v 0.940283 -5.103979 -0.546346
v 0.854526 -5.103971 -1.077945
v -0.018778 -0.007085 1.742227
v -0.588168 0.009178 1.598213
v -0.456136 -5.103861 1.178885
v -0.019249 -5.103898 1.309320
v 1.458733 0.666768 -0.014747
v 1.329247 0.487844 0.650677
v 0.940283 -5.103979 0.516851
v 1.026040 -5.103986 -0.014747
v -0.018778 -0.007085 -1.771721
v -0.019249 -5.103898 -1.338815
v -1.496169 0.662364 -0.014747
v -1.064538 -5.103809 -0.014747
v -0.978781 -5.103817 -0.546346
v -1.366704 0.464654 -0.680171
v 0.417638 -5.103935 -1.208380
v 0.550614 0.009100 -1.627707
vn -0.6321 -0.5469 0.5490
vn -0.0715 -0.9974 -0.0000
vn -0.0063 -0.5967 0.8024
vn -0.2668 -0.4474 0.8536
vn -0.2874 -0.1717 0.9423
vn -0.7389 -0.1522 0.6564
vn 0.5468 -0.6668 0.5064
vn 0.7802 -0.6255 0.0000
vn 0.8408 -0.5109 0.1789
vn 0.7214 -0.2485 0.6464
vn 0.2852 -0.2097 0.9353
vn 0.2584 -0.4983 0.8276
vn -0.6321 -0.5469 -0.5490
vn -0.9244 -0.3254 -0.1989
vn -0.9793 -0.0854 -0.1836
vn -0.7389 -0.1522 -0.6564
vn 0.5474 -0.6668 -0.5057
vn 0.7214 -0.2485 -0.6464
vn 0.9599 -0.2153 -0.1797
vn 0.8408 -0.5109 -0.1789
vn -0.7727 -0.0648 0.6315
vn -0.9682 -0.0657 0.2414
vn -0.9771 -0.0577 0.2048
vn -0.7604 -0.0801 0.6444
vn -0.0012 -0.1983 0.9801
vn -0.9009 -0.4340 0.0000
vn -0.9244 -0.3254 0.1989
vn -0.9793 -0.0854 0.1836
vn -0.9965 -0.0836 -0.0000
vn 0.7730 -0.0650 0.6311
vn 0.3836 -0.0742 0.9205
vn 0.3347 -0.1070 0.9362
vn 0.7577 -0.1132 0.6427
vn 0.9764 -0.2159 -0.0000
vn 0.9599 -0.2153 0.1797
vn -0.7727 -0.0648 -0.6315
vn -0.3840 -0.0740 -0.9203
vn -0.3353 -0.0935 -0.9375
vn -0.7604 -0.0801 -0.6444
vn -0.0063 -0.5967 -0.8024
vn -0.2668 -0.4474 -0.8536
vn -0.2874 -0.1717 -0.9423
vn -0.0012 -0.1983 -0.9801
vn 0.2852 -0.2097 -0.9353
vn 0.2584 -0.4984 -0.8276
vn 0.7730 -0.0650 -0.6311
vn 0.9683 -0.0658 -0.2410
vn 0.9734 -0.1036 -0.2044
vn 0.7577 -0.1132 -0.6427
vn -0.0000 -0.0867 0.9962
vn -0.3840 -0.0740 0.9203
vn -0.3353 -0.0935 0.9375
vn -0.0003 -0.1088 0.9941
vn 0.9973 -0.0741 -0.0000
vn 0.9683 -0.0658 0.2410
vn 0.9734 -0.1036 0.2044
vn 0.9942 -0.1075 -0.0000
vn -0.0000 -0.0867 -0.9962
vn -0.0003 -0.1088 -0.9941
vn -0.9973 -0.0741 -0.0000
vn -0.9981 -0.0611 -0.0000
vn -0.9771 -0.0577 -0.2048
vn -0.9682 -0.0657 -0.2414
vn 0.3347 -0.1070 -0.9362
vn 0.3836 -0.0742 -0.9205
usemtl Cementum.025
s 1
f 6//2 7//3 8//4 9//5
f 6//2 9//5 10//6 11//7
f 12//8 7//3 13//9 14//10
f 12//8 15//11 16//12 17//13
f 18//14 19//15 20//16 21//17
f 22//18 23//19 24//20 25//21
f 26//22 27//23 28//24 29//25
f 8//4 7//3 12//8 17//13
f 8//4 30//26 10//6 9//5
f 31//27 32//28 33//29 34//30
f 31//27 34//30 20//16 19//15
f 35//31 36//32 37//33 38//34
f 13//9 7//3 22//18 25//21
f 13//9 39//35 40//36 14//10
f 41//37 42//38 43//39 44//40
f 45//41 46//42 47//43 48//44
f 45//41 48//44 49//45 50//46
f 51//47 52//48 53//49 54//50
f 55//51 56//52 57//53 58//54
f 59//55 60//56 61//57 62//58
f 63//59 64//60 43//39 42//38
f 65//61 66//62 28//24 27//23
f 29//25 57//53 56//52 26//22
f 29//25 11//7 10//6 57//53
f 44//40 67//63 68//64 41//37
f 44//40 21//17 20//16 67//63
f 38//34 37//33 16//12 15//11
f 38//34 61//57 60//56 35//31
f 54//50 53//49 24//20 23//19
f 54//50 69//65 70//66 51//47
f 64//60 48//44 47//43 43//39
f 66//62 34//30 33//29 28//24
f 58//54 37//33 36//32 55//51
f 58//54 57//53 10//6 30//26
f 62//58 53//49 52//48 59//55
f 62//58 61//57 40//36 39//35
f 68//64 67//63 66//62 65//61
f 32//28 31//27 7//3 6//2
f 14//10 40//36 15//11 12//8
f 46//42 45//41 7//3 18//14
f 17//13 16//12 30//26 8//4
f 19//15 18//14 7//3 31//27
f 25//21 24//20 39//35 13//9
f 50//46 22//18 7//3 45//41
f 50//46 49//45 23//19 22//18
f 70//66 69//65 64//60 63//59
f 43//39 47//43 21//17 44//40
f 28//24 33//29 11//7 29//25
f 67//63 20//16 34//30 66//62
f 69//65 49//45 48//44 64//60
f 11//7 33//29 32//28 6//2
f 21//17 47//43 46//42 18//14
f 15//11 40//36 61//57 38//34
f 23//19 49//45 69//65 54//50
f 30//26 16//12 37//33 58//54
f 39//35 24//20 53//49 62//58
o cube1_D.024
v -1.994034 3.763911 -0.014747
v -1.950501 3.763905 0.511916
v -2.006160 4.939392 -0.025393
v -2.079336 4.950371 -0.340304
v -1.937157 2.672748 -0.014747
v -1.808879 2.672742 0.644305
v -1.841238 3.763897 -0.497222
v -1.605811 2.672729 -0.726128
v -1.435595 1.736121 1.306005
v -0.894199 1.736083 1.701146
v -0.944556 2.672686 1.436094
v -1.574862 2.672732 1.117325
v -1.289217 1.736114 -1.206791
v -1.634466 1.770281 -0.636009
v -1.837293 1.884051 -0.014747
v -1.692856 1.770281 0.606515
v -1.794441 3.763898 0.722433
v -1.259672 2.672707 -0.788930
v -0.817515 1.736084 -1.562352
v -2.006183 4.720667 -0.576634
v -1.369092 3.763871 -0.593329
v -1.024017 3.763839 0.911363
v -0.764530 2.672681 -0.859256
v -1.363895 4.318500 -0.584981
v -1.026894 4.322887 0.556551
vn -0.9924 -0.0857 -0.0885
vn -0.9363 0.0294 0.3499
vn -0.5710 0.5578 0.6023
vn -0.8118 0.5223 -0.2611
vn -0.9903 -0.0916 -0.1046
vn -0.9478 -0.0834 0.3078
vn -0.6443 -0.0422 -0.7636
vn -0.7336 0.0823 -0.6746
vn -0.7903 -0.0704 0.6087
vn -0.3840 0.1410 0.9125
vn -0.2690 0.3125 0.9110
vn -0.7056 0.0974 0.7019
vn -0.7279 0.1377 -0.6717
vn -0.9157 -0.0986 -0.3897
vn -0.9813 -0.1836 -0.0586
vn -0.9461 -0.1902 0.2623
vn -0.5860 0.2829 0.7593
vn -0.2213 0.3347 -0.9160
vn -0.2933 0.4648 -0.8354
vn -0.3809 0.1512 -0.9122
vn -0.0424 0.1105 -0.9930
vn -0.1595 0.4603 0.8733
vn -0.1217 0.4781 -0.8698
vn 0.0088 -0.0260 -0.9996
vn -0.0786 0.5693 0.8184
usemtl D.025
s 1
f 71//67 72//68 73//69 74//70
f 71//67 75//71 76//72 72//68
f 71//67 77//73 78//74 75//71
f 79//75 80//76 81//77 82//78
f 83//79 84//80 78//74
f 85//81 86//82 76//72 75//71
f 72//68 87//83 73//69
f 82//78 76//72 86//82 79//75
f 78//74 88//84 89//85 83//79
f 75//71 78//74 84//80 85//81
f 76//72 82//78 87//83 72//68
f 74//70 90//86 77//73 71//67
f 91//87 88//84 78//74 77//73
f 81//77 92//88 87//83 82//78
f 93//89 89//85 88//84
f 77//73 90//86 94//90 91//87
f 88//84 91//87 93//89
f 95//91 73//69 87//83 92//88
o cube1_Enamel2.024
v -1.073177 0.254844 1.215242
v -0.588168 0.009178 1.598213
v -1.266232 1.096801 1.319438
v 1.035679 0.238383 1.215242
v 1.080157 1.096661 1.433004
v 0.550614 0.009100 1.598213
v -1.073177 0.254844 -1.244736
v -1.366704 0.464654 -0.680171
v -1.543073 1.226635 -0.637567
v -1.087614 1.004191 -1.576102
v 1.035679 0.238383 -1.244736
v 1.097091 1.004049 -1.644242
v 1.329247 0.487844 -0.680171
v 1.458733 0.666768 -0.014747
v 1.829385 1.784743 -0.014747
v 1.593435 1.770082 0.606515
v 1.329247 0.487844 0.650677
v -0.018778 -0.007085 -1.771721
v -0.588168 0.009178 -1.627707
v -0.689875 1.065778 -1.896638
v -0.018698 1.065735 -2.013049
v -1.496169 0.662364 -0.014747
v -1.366704 0.464654 0.650677
v -1.543073 1.226635 0.608073
v -1.661309 1.353905 -0.014747
v 1.298818 1.735959 -1.365784
v 1.679292 1.770082 -0.636009
v -0.018640 1.736037 -1.731535
v -0.817515 1.736084 -1.562352
v -1.837293 1.884051 -0.014747
v -1.692856 1.770281 0.606515
v -1.634466 1.770281 -0.636009
v -1.289217 1.736114 -1.206791
v 0.550614 0.009100 -1.627707
v 0.780234 1.735990 -1.562352
v 0.652479 1.065692 -1.896638
v 1.289514 1.735952 1.306005
v -1.435595 1.736121 1.306005
vn -0.8106 -0.2374 0.5353
vn -0.5344 -0.2482 0.8079
vn -0.7860 -0.2117 0.5808
vn 0.8002 -0.1861 0.5702
vn 0.7860 -0.1725 0.5937
vn 0.5412 -0.2387 0.8063
vn -0.8038 -0.2523 -0.5387
vn -0.9418 -0.2080 -0.2642
vn -0.9368 -0.1819 -0.2988
vn -0.7625 -0.1211 -0.6356
vn 0.8024 -0.3254 -0.5003
vn 0.7247 -0.1749 -0.6665
vn 0.9221 -0.2430 -0.3011
vn 0.9627 -0.2682 0.0344
vn 0.9785 -0.2056 0.0189
vn 0.9204 -0.1907 0.3413
vn 0.9172 -0.1937 0.3481
vn -0.0000 -0.2424 -0.9702
vn -0.5034 -0.2737 -0.8196
vn -0.4202 0.0390 -0.9066
vn 0.0000 0.0860 -0.9963
vn -0.9743 -0.2251 -0.0000
vn -0.9444 -0.2246 0.2401
vn -0.9402 -0.2455 0.2363
vn -0.9693 -0.2455 -0.0140
vn 0.6841 0.1474 -0.7143
vn 0.9339 -0.1662 -0.3166
vn 0.0000 0.5251 -0.8511
vn -0.2933 0.4648 -0.8354
vn -0.9813 -0.1836 -0.0586
vn -0.9461 -0.1902 0.2623
vn -0.9157 -0.0986 -0.3897
vn -0.7279 0.1377 -0.6717
vn 0.4567 -0.3027 -0.8365
vn 0.2075 0.4950 -0.8438
vn 0.3295 0.0469 -0.9430
vn 0.7834 -0.0704 0.6175
vn -0.7903 -0.0704 0.6087
usemtl Enamel2.025
s 1
f 96//92 97//93 98//94
f 99//95 100//96 101//97
f 102//98 103//99 104//100 105//101
f 106//102 107//103 108//104
f 109//105 110//106 111//107 112//108
f 113//109 114//110 115//111 116//112
f 117//113 118//114 119//115 120//116
f 121//117 122//118 108//104 107//103
f 123//119 116//112 115//111 124//120
f 125//121 120//116 119//115 126//122
f 127//123 128//124 105//101 104//100
f 127//123 104//100 120//116 125//121
f 112//108 100//96 99//95
f 108//104 122//118 110//106 109//105
f 114//110 105//101 115//111
f 129//125 107//103 106//102
f 130//126 131//127 116//112 123//119
f 124//120 115//111 105//101 128//124
f 98//94 119//115 118//114 96//92
f 105//101 114//110 102//98
f 116//112 131//127 129//125 113//109
f 120//116 104//100 103//99 117//113
f 100//96 112//108 111//107 132//128
f 107//103 131//127 130//126 121//117
f 119//115 98//94 133//129 126//122
f 131//127 107//103 129//125
o cube1_F.008
v -0.018456 3.763799 0.969136
v -0.018551 2.672641 1.540056
v 0.907452 2.672595 1.436094
v 0.987109 3.763759 0.911363
v -1.024017 3.763839 0.911363
v -0.944556 2.672686 1.436094
v -0.018392 4.322867 0.608151
v -1.026894 4.322887 0.556551
v -0.018640 1.736036 1.870329
v -0.894199 1.736083 1.701146
v 0.856909 1.735989 1.701146
v 0.990114 4.322847 0.556551
vn 0.0000 0.4934 0.8698
vn 0.0000 0.3744 0.9273
vn 0.2898 0.3038 0.9076
vn 0.1628 0.4575 0.8742
vn -0.1595 0.4603 0.8733
vn -0.2690 0.3125 0.9110
vn 0.0000 0.5818 0.8133
vn -0.0786 0.5693 0.8184
vn 0.0000 0.2390 0.9710
vn -0.3840 0.1410 0.9125
vn 0.4156 0.1395 0.8988
vn 0.0771 0.5694 0.8185
usemtl F.008
s 1
f 134//130 135//131 136//132 137//133
f 134//130 138//134 139//135 135//131
f 134//130 140//136 141//137 138//134
f 142//138 135//131 139//135 143//139
f 142//138 144//140 136//132 135//131
f 137//133 145//141 140//136 134//130
o cube1_I.008
v -0.018329 5.091854 -0.025393
v -0.711191 5.091854 -0.025393
v -1.026894 4.322887 0.556551
v -0.018392 4.322867 0.608151
v -0.018331 5.102832 -0.340304
v -0.711193 5.102832 -0.340304
v -0.018352 4.873129 -0.576634
v 0.674506 4.873129 -0.576634
v 0.698189 4.318444 -0.537048
v -0.018404 4.318464 -0.540691
v 0.674526 5.102832 -0.340304
v -2.079336 4.950371 -0.340304
v -1.388243 5.102832 -0.340304
v -1.358698 4.873129 -0.576634
v -2.006183 4.720667 -0.576634
v 2.042668 4.957994 -0.340304
v 1.351576 5.102832 -0.340304
v 1.322012 5.091854 -0.025393
v 1.969496 4.947015 -0.025393
v -2.006160 4.939392 -0.025393
v -1.358676 5.091854 -0.025393
v 1.969474 4.728290 -0.576634
v 1.321990 4.873129 -0.576634
v 1.327085 4.318428 -0.584981
v 0.674528 5.091854 -0.025393
v 0.990114 4.322847 0.556551
v -0.711213 4.873129 -0.576634
v -0.734998 4.318484 -0.537048
v -1.363895 4.318500 -0.584981
vn 0.0000 0.8932 0.4497
vn -0.0065 0.8903 0.4553
vn -0.0786 0.5693 0.8184
vn 0.0000 0.5819 0.8133
vn 0.0000 0.9330 -0.3599
vn -0.0000 0.3577 -0.9338
vn -0.0097 0.3669 -0.9302
vn -0.0357 -0.0490 -0.9982
vn -0.0000 -0.0679 -0.9977
vn -0.8118 0.5223 -0.2612
vn -0.1041 0.9285 -0.3565
vn -0.0336 0.3790 -0.9248
vn -0.3809 0.1512 -0.9122
vn 0.8024 0.5361 -0.2623
vn 0.0991 0.9290 -0.3567
vn 0.0937 0.8736 0.4775
vn 0.5726 0.5566 0.6020
vn -0.5710 0.5578 0.6023
vn -0.0984 0.8727 0.4783
vn 0.3724 0.1527 -0.9154
vn 0.0315 0.3794 -0.9247
vn -0.0088 -0.0260 -0.9996
vn 0.0066 0.8904 0.4552
vn 0.0771 0.5694 0.8184
vn 0.0097 0.3669 -0.9302
vn 0.0357 -0.0490 -0.9982
vn 0.0088 -0.0260 -0.9996
usemtl I.008
s 1
f 146//142 147//143 148//144 149//145
f 146//142 150//146 151//146 147//143
f 152//147 153//148 154//149 155//150
f 152//147 150//146 156//146 153//148
f 157//151 158//152 159//153 160//154
f 161//155 162//156 163//157 164//158
f 165//159 166//160 158//152 157//151
f 165//159 148//144 166//160
f 167//161 168//162 162//156 161//155
f 167//161 169//163 168//162
f 170//164 156//146 150//146 146//142
f 170//164 163//157 162//156 156//146
f 170//164 171//165 163//157
f 172//166 151//146 150//146 152//147
f 172//166 159//153 158//152 151//146
f 172//166 173//167 174//168 159//153
f 151//146 158//152 166//160 147//143
f 156//146 162//156 168//162 153//148
f 159//153 174//168 160//154
f 166//160 148//144 147//143
f 168//162 169//163 154//149 153//148
f 163//157 171//165 164//158
f 149//145 171//165 170//164 146//142
f 155//150 173//167 172//166 152//147
o cube1_L.024
v -0.018456 3.763799 -0.504749
v -0.018404 4.318464 -0.540691
v 0.698189 4.318444 -0.537048
v 0.721872 3.763759 -0.497462
v -0.018640 1.736037 -1.731535
v -0.018596 2.204339 -1.284700
v 0.727429 2.672601 -0.859256
v 0.780234 1.735990 -1.562352
v -0.018551 2.561507 -0.822723
v -0.758783 3.763839 -0.497462
v -0.764530 2.672681 -0.859256
v 1.332181 3.763726 -0.593329
v -1.369092 3.763871 -0.593329
v -1.363895 4.318500 -0.584981
v -0.734998 4.318484 -0.537048
v 1.327085 4.318428 -0.584981
v -0.817515 1.736084 -1.562352
vn 0.0000 0.0953 -0.9954
vn -0.0000 -0.0678 -0.9977
vn -0.0357 -0.0490 -0.9982
vn -0.0548 0.1192 -0.9914
vn 0.0000 0.5251 -0.8511
vn 0.0000 0.6357 -0.7719
vn 0.1218 0.4781 -0.8698
vn 0.2075 0.4949 -0.8438
vn 0.0000 0.4731 -0.8810
vn 0.0549 0.1192 -0.9914
vn 0.0000 0.7911 -0.6116
vn 0.1379 0.5719 -0.8087
vn 0.0363 0.1139 -0.9928
vn -0.1378 0.5719 -0.8087
vn -0.0424 0.1105 -0.9930
vn 0.0088 -0.0260 -0.9996
vn 0.0357 -0.0490 -0.9982
vn -0.0088 -0.0260 -0.9996
vn -0.2933 0.4648 -0.8354
vn -0.1217 0.4781 -0.8698
usemtl L.025
s 1
f 175//169 176//170 177//171 178//172
f 179//173 180//174 181//175 182//176
f 183//177 184//178 175//169
f 183//177 180//179 185//180
f 186//181 181//182 183//177 178//172
f 187//183 188//184 189//185 184//178
f 184//178 183//177 185//180 187//183
f 184//178 189//185 176//170 175//169
f 178//172 183//177 175//169
f 178//172 177//171 190//186 186//181
f 191//187 185//188 180//174 179//173
f 181//182 180//179 183//177
o cube1_M.024
v 1.985252 3.763686 -0.014747
v 1.913590 3.763693 0.489203
v 1.829866 2.672539 0.591307
v 1.931768 2.672533 -0.014747
v 2.042668 4.957994 -0.340304
v 1.969496 4.947015 -0.025393
v 1.804327 3.763700 -0.497222
v 1.969474 4.728290 -0.576634
v 1.289514 1.735952 1.306005
v 1.480034 2.672549 1.117325
v 0.907452 2.672595 1.436094
v 0.856909 1.735989 1.701146
v 1.593435 1.770082 0.606515
v 1.829385 1.784743 -0.014747
v 1.679292 1.770082 -0.636009
v 1.729938 2.672553 -0.726128
v 1.757530 3.763699 0.722433
v 0.987109 3.763759 0.911363
v 1.298818 1.735959 -1.365784
v 1.332181 3.763726 -0.593329
v 1.327085 4.318428 -0.584981
v 0.990114 4.322847 0.556551
v 0.780234 1.735990 -1.562352
v 1.222571 2.672574 -0.788930
v 0.727429 2.672601 -0.859256
vn 0.9962 -0.0554 -0.0677
vn 0.9295 0.0377 0.3669
vn 0.9261 -0.1005 0.3636
vn 0.9952 -0.0907 -0.0375
vn 0.8024 0.5361 -0.2623
vn 0.5726 0.5566 0.6020
vn 0.6473 -0.0172 -0.7620
vn 0.3724 0.1528 -0.9154
vn 0.7834 -0.0704 0.6175
vn 0.6923 0.0735 0.7178
vn 0.2898 0.3038 0.9076
vn 0.4157 0.1396 0.8987
vn 0.9204 -0.1907 0.3414
vn 0.9785 -0.2056 0.0189
vn 0.9339 -0.1662 -0.3166
vn 0.7427 0.1142 -0.6598
vn 0.5859 0.2737 0.7628
vn 0.1628 0.4575 0.8742
vn 0.6841 0.1475 -0.7144
vn 0.0362 0.1139 -0.9928
vn -0.0088 -0.0259 -0.9996
vn 0.0771 0.5694 0.8184
vn 0.2075 0.4950 -0.8438
vn 0.1582 0.3748 -0.9135
vn 0.1218 0.4781 -0.8698
usemtl M.025
s 1
f 192//189 193//190 194//191 195//192
f 192//189 196//193 197//194 193//190
f 192//189 198//195 199//196 196//193
f 200//197 201//198 202//199 203//200
f 200//197 204//201 194//191 201//198
f 205//202 206//203 207//204 195//192
f 193//190 208//205 201//198 194//191
f 201//198 208//205 209//206 202//199
f 207//204 206//203 210//207
f 195//192 207//204 198//195 192//189
f 195//192 194//191 204//201 205//202
f 211//208 212//209 199//196 198//195
f 197//194 208//205 193//190
f 209//206 208//205 197//194 213//210
f 214//211 215//212 207//204 210//207
f 216//213 211//208 215//212
f 216//213 215//212 214//211
f 215//212 211//208 198//195 207//204
o cube1_V.024
v -0.018778 -0.007085 1.742227
v -0.018698 1.065735 1.983554
v -0.689875 1.065778 1.867144
v -0.588168 0.009178 1.598213
v 1.289514 1.735952 1.306005
v 0.856909 1.735989 1.701146
v 0.652479 1.065692 1.867144
v 1.080157 1.096661 1.433004
v -1.435595 1.736121 1.306005
v -1.266232 1.096801 1.319438
v -0.894199 1.736083 1.701146
v -0.018640 1.736036 1.870329
v 0.550614 0.009100 1.598213
vn -0.0000 -0.2424 0.9702
vn -0.0000 -0.0325 0.9995
vn -0.4476 -0.1013 0.8885
vn -0.5344 -0.2482 0.8080
vn 0.7834 -0.0703 0.6175
vn 0.4156 0.1395 0.8988
vn 0.4707 -0.0955 0.8771
vn 0.7860 -0.1725 0.5937
vn -0.7903 -0.0703 0.6087
vn -0.7860 -0.2117 0.5808
vn -0.3840 0.1410 0.9125
vn 0.0000 0.2390 0.9710
vn 0.5412 -0.2387 0.8063
usemtl V.025
s 1
f 217//214 218//215 219//216 220//217
f 221//218 222//219 223//220 224//221
f 225//222 226//223 219//216 227//224
f 228//225 227//224 219//216 218//215
f 229//226 224//221 223//220
f 229//226 223//220 218//215 217//214
f 218//215 223//220 222//219 228//225
f 219//216 226//223 220//217
o cube1_default.022
v -0.597432 -2.131197 -0.021888
v -0.672171 0.103567 -0.016316
v 0.002532 -0.013450 -0.016325
v 0.677235 0.098857 -0.016334
v 0.592367 -2.135350 -0.021904
vn -0.0000 0.0026 -1.0000
usemtl default.023
s 1
f 230//227 231//227 232//227 233//227 234//227
